<?xml version="1.0" standalone="no"?>
<!DOCTYPE svg PUBLIC "-//W3C//DTD SVG 20010904//EN"
 "http://www.w3.org/TR/2001/REC-SVG-20010904/DTD/svg10.dtd">
<svg version="1.0" xmlns="http://www.w3.org/2000/svg"
 width="729.000000pt" height="729.000000pt" viewBox="0 0 729.000000 729.000000"
 preserveAspectRatio="xMidYMid meet">
<metadata>
Created by potrace 1.11, written by Peter Selinger 2001-2013
</metadata>
<g transform="translate(0.000000,729.000000) scale(0.100000,-0.100000)"
fill="#000000" stroke="none">
<path d="M3435 7284 c-902 -59 -1736 -435 -2365 -1064 -493 -492 -838 -1125
-986 -1807 -152 -705 -90 -1443 177 -2115 234 -588 645 -1140 1123 -1505 l81
-62 15 24 c8 14 22 25 32 25 14 0 13 -5 -8 -25 -21 -21 -23 -29 -14 -40 7 -8
16 -12 21 -9 5 3 9 1 9 -5 0 -14 129 -105 260 -184 213 -127 517 -265 732
-332 l88 -27 75 27 c41 15 75 30 75 32 0 11 -87 -11 -109 -28 -27 -21 -41 -24
-41 -8 0 6 9 13 20 16 31 8 13 23 -28 23 -20 0 -44 5 -52 10 -10 7 9 8 61 4
64 -5 80 -4 104 12 21 13 30 15 33 6 5 -17 37 -15 80 5 48 21 72 42 66 57 -3
8 7 10 35 8 41 -4 62 11 42 31 -9 9 -14 8 -21 -3 -6 -8 -10 -10 -10 -3 0 6 -9
9 -22 5 -13 -3 -19 -1 -15 5 4 7 -13 5 -41 -4 -103 -33 -225 -64 -236 -60 -6
3 6 8 27 12 20 4 37 10 37 14 0 4 11 8 25 9 31 2 144 39 165 52 22 15 -32 5
-115 -21 -37 -11 -69 -19 -71 -16 -2 2 15 10 38 17 24 7 52 19 63 26 18 13 14
14 -36 8 -38 -4 -64 -2 -80 7 -25 13 -274 17 -341 5 -24 -4 -27 -4 -13 3 11 5
67 12 125 16 104 8 105 8 65 21 -34 11 -35 12 -8 8 24 -4 40 0 59 15 15 12 34
21 43 21 10 0 26 7 37 15 10 8 26 15 34 15 8 0 41 14 73 30 31 17 57 28 57 26
0 -3 -12 -12 -27 -20 -16 -9 -22 -15 -13 -16 9 0 20 4 25 8 11 10 125 37 138
34 5 -2 6 2 3 7 -4 5 0 11 6 14 7 2 10 8 6 12 -5 5 -16 0 -27 -9 -13 -12 -20
-14 -23 -5 -3 9 -11 8 -33 -2 -17 -8 -50 -14 -75 -13 -127 3 -150 5 -150 12 0
10 125 31 241 41 47 5 88 14 104 25 20 13 30 15 38 7 16 -16 44 -13 51 5 4 10
13 14 28 10 13 -3 17 -3 10 0 -6 3 -10 10 -6 15 5 9 -42 -8 -63 -23 -7 -6 -19
3 -34 24 -13 18 -16 28 -8 21 16 -13 59 -7 59 8 0 4 -26 7 -57 5 -43 -2 -89
-16 -179 -54 -144 -62 -165 -67 -56 -12 44 22 83 40 86 40 4 0 16 9 28 20 18
16 19 20 6 20 -9 0 -28 -4 -43 -10 -16 -6 -24 -6 -20 0 3 5 -7 9 -22 9 -15 0
-64 4 -108 9 -77 9 -75 10 55 8 129 -1 188 5 234 25 14 6 -1 7 -44 4 -51 -4
-57 -3 -30 4 19 5 51 11 70 14 96 14 120 20 120 33 0 8 10 14 25 14 14 0 25 5
25 10 0 6 -13 9 -30 8 -16 -1 -30 -6 -30 -10 0 -4 -22 -8 -50 -8 -33 0 -50 -4
-50 -12 0 -10 -2 -10 -9 0 -8 14 -70 10 -94 -5 -6 -3 -7 -1 -3 5 4 7 14 12 22
12 8 0 14 5 14 10 0 6 12 8 27 5 16 -2 30 1 35 8 6 9 8 9 8 0 0 -20 30 -15 31
5 0 9 3 12 5 6 9 -21 344 6 344 27 0 5 -12 7 -27 4 -26 -6 -26 -5 4 9 18 8 58
22 90 32 32 9 67 20 78 25 11 5 33 13 48 19 33 12 27 30 -9 30 -13 0 -24 5
-24 11 0 8 -4 8 -13 1 -7 -6 -31 -11 -53 -10 -22 0 -59 -3 -82 -7 -67 -11 -49
1 36 24 88 24 107 25 176 17 46 -6 48 -5 35 11 -8 10 -20 22 -26 26 -7 4 -13
17 -13 29 0 18 3 17 28 -10 39 -42 74 -49 109 -24 41 29 82 75 60 66 -9 -3
-17 -3 -17 1 0 10 27 35 38 35 5 0 16 8 26 19 16 17 16 18 -4 17 -11 0 -31
-14 -44 -30 -15 -20 -25 -25 -30 -18 -4 7 -3 12 3 12 6 0 17 12 25 28 8 15 38
51 65 80 55 58 66 88 29 77 -19 -5 -16 0 15 30 20 20 37 38 37 40 0 2 -7 11
-16 20 -16 15 -16 16 2 13 13 -2 21 6 29 29 6 17 19 41 29 52 11 12 14 21 8
21 -7 0 -25 -18 -41 -40 -36 -50 -46 -39 -15 15 13 22 24 36 24 31 0 -5 11 1
25 14 14 13 28 20 32 17 3 -4 1 -7 -5 -7 -7 0 -12 -5 -12 -12 0 -6 11 -1 25
12 13 12 22 27 19 31 -3 5 0 9 5 9 6 0 11 8 11 18 0 10 5 23 12 30 7 7 8 12 2
12 -6 0 -15 -5 -21 -11 -9 -9 -29 -15 -55 -18 -5 -1 -8 -8 -8 -16 0 -9 6 -12
17 -8 11 4 7 -5 -12 -30 -35 -43 -56 -34 -29 12 23 39 11 51 -21 21 -14 -13
-27 -21 -30 -18 -3 3 10 18 30 33 29 24 33 31 22 44 -10 12 -9 13 1 7 16 -10
62 35 81 79 12 29 12 29 -22 -7 -19 -21 -43 -38 -53 -37 -14 0 -11 4 9 11 15
5 27 16 27 23 0 7 15 22 33 34 28 17 66 61 52 61 -2 0 -19 -9 -37 -20 -51 -31
-56 -24 -7 12 43 31 43 31 20 42 -19 8 -26 7 -36 -7 -15 -21 -26 -22 -19 -3 4
10 -1 14 -19 12 -13 -2 -30 -7 -38 -11 -8 -5 -5 1 5 13 19 22 19 22 -2 22 -38
0 -24 19 16 22 25 2 37 8 37 18 0 8 8 26 17 39 13 18 14 26 5 36 -7 7 -16 11
-20 8 -4 -3 -14 1 -22 7 -11 9 -15 9 -15 1 0 -26 -29 -8 -49 32 l-21 42 5 -40
c5 -36 4 -37 -6 -15 -11 25 -11 25 -19 4 -5 -12 -15 -26 -22 -30 -10 -6 -10
-5 0 9 8 9 12 22 9 29 -2 8 -12 -1 -24 -20 -12 -20 -24 -29 -27 -23 -4 6 -4
16 0 23 4 7 3 8 -4 4 -7 -4 -12 -2 -12 3 0 6 -6 11 -14 11 -9 0 -13 7 -11 19
3 18 2 19 -32 4 -30 -12 -37 -12 -44 -1 -7 10 -9 9 -9 -5 0 -10 -4 -15 -10
-12 -5 3 -10 14 -10 25 0 14 -5 17 -22 12 -34 -8 -53 -42 -23 -42 8 0 19 -9
25 -20 9 -17 8 -20 -9 -20 -11 0 -23 -4 -26 -10 -3 -5 -10 -10 -16 -10 -11 0
-12 50 0 69 5 7 6 22 4 32 -5 18 -7 18 -34 2 -28 -16 -30 -39 -3 -29 11 4 14
-5 14 -41 0 -25 -3 -43 -6 -40 -4 4 -20 -3 -37 -15 -26 -19 -30 -19 -24 -4 4
10 3 15 -3 11 -6 -3 -10 -12 -10 -20 0 -8 -8 -19 -17 -24 -12 -7 -13 -10 -4
-11 8 0 11 -6 7 -16 -3 -8 -2 -12 4 -9 18 11 10 -25 -9 -44 -11 -11 -25 -30
-32 -43 l-13 -23 -6 30 -7 30 -12 -42 c-15 -53 -25 -56 -17 -5 4 24 3 32 -3
22 -5 -8 -11 -28 -14 -45 -3 -16 -10 -41 -16 -55 l-11 -25 5 27 c7 35 0 36
-18 2 -14 -26 -14 -25 -22 37 l-8 64 -13 -40 c-10 -32 -13 -35 -14 -15 -1 24
-1 24 -14 -6 -8 -17 -21 -34 -30 -37 -15 -6 -15 -4 0 18 9 14 13 25 9 25 -5 0
0 10 11 22 17 20 16 20 -13 -2 -30 -24 -47 -50 -21 -34 7 5 8 3 4 -5 -5 -7
-11 -10 -14 -7 -3 4 -19 -6 -34 -21 -24 -23 -28 -24 -22 -8 4 11 12 27 19 35
21 27 26 50 8 43 -11 -5 -14 -1 -9 13 3 10 2 25 -3 33 -7 10 -12 8 -25 -10 -9
-14 -16 -18 -16 -9 0 9 -9 6 -27 -11 l-27 -24 23 32 c26 39 43 51 34 26 -3
-10 -3 -15 1 -12 4 4 9 24 12 45 4 33 3 36 -8 23 -7 -8 -20 -20 -29 -27 -25
-18 -18 21 11 61 19 26 20 29 3 14 -21 -18 -40 -12 -23 8 6 7 4 21 -5 39 -19
36 -19 42 0 26 23 -19 18 4 -5 25 -18 17 -20 17 -14 2 3 -10 1 -17 -5 -17 -7
0 -11 -21 -11 -55 0 -30 -4 -55 -10 -55 -5 0 -8 14 -6 32 4 31 -17 78 -35 78
-5 0 -9 -19 -9 -42 0 -32 -3 -39 -10 -28 -7 11 -10 11 -10 2 0 -8 -5 -10 -12
-6 -8 5 -9 1 -4 -12 6 -15 5 -17 -5 -7 -10 11 -16 8 -26 -15 l-13 -27 5 33 c3
22 1 31 -6 26 -6 -3 -5 3 3 15 7 12 16 21 21 21 4 0 5 -5 1 -12 -4 -7 -3 -8 5
-4 6 4 9 12 5 17 -3 5 0 18 7 27 7 9 -3 2 -22 -15 -37 -35 -60 -44 -38 -15 13
15 12 16 -3 4 -9 -8 -15 -19 -13 -25 3 -7 -7 -25 -21 -42 -17 -20 -22 -24 -17
-10 6 18 5 19 -13 5 -17 -12 -17 -12 -6 0 7 8 18 15 24 15 6 0 13 6 16 14 3 9
0 11 -9 5 -19 -11 3 18 54 72 22 23 39 46 40 50 1 24 10 43 17 39 5 -3 11 -1
15 5 4 6 12 7 18 3 7 -4 7 0 -1 10 -8 9 -10 22 -6 29 5 7 9 19 10 26 3 20 25
42 35 36 5 -3 5 -14 -1 -25 -6 -10 -7 -19 -3 -19 4 0 -1 -7 -11 -15 -11 -8
-18 -17 -15 -19 5 -5 69 24 90 40 8 6 21 12 29 12 31 1 61 12 105 37 25 15 45
29 45 31 0 9 -69 -12 -107 -33 -24 -13 -43 -19 -43 -13 0 5 5 10 10 10 6 0 10
5 10 11 0 6 -9 8 -20 4 -15 -5 -20 -2 -20 12 -1 17 -2 17 -15 -1 -8 -11 -15
-15 -15 -9 0 6 -3 18 -6 27 -3 9 -1 16 6 16 6 0 8 -4 5 -10 -14 -23 4 -8 20
16 11 18 12 24 4 18 -12 -6 -12 -5 0 9 9 11 10 17 2 17 -8 0 -8 5 -1 17 5 10
16 33 25 51 16 33 16 33 -5 22 -11 -6 -45 -36 -75 -67 -54 -55 -65 -60 -45
-22 8 13 7 19 0 19 -6 0 -13 -7 -16 -15 -4 -8 -14 -15 -23 -15 -9 0 -22 -5
-27 -10 -15 -15 -64 -23 -64 -10 0 5 14 10 30 10 17 0 30 4 30 10 0 5 14 17
30 25 17 9 28 20 25 25 -3 4 7 18 21 29 15 12 24 24 21 28 -4 3 1 16 10 27 13
15 10 14 -10 -3 -15 -14 -27 -20 -27 -14 0 5 9 18 20 28 11 10 20 23 20 28 0
6 -3 8 -6 4 -12 -12 -33 17 -22 31 8 9 6 12 -6 12 -13 0 -16 5 -11 21 6 19 5
20 -15 9 -15 -8 -20 -8 -16 -1 4 6 0 11 -8 11 -23 0 -19 16 9 38 13 11 22 22
18 25 -3 4 2 18 12 33 11 17 12 24 4 19 -11 -7 -11 -5 0 6 10 10 15 11 18 2 2
-7 10 -10 17 -7 16 6 73 -26 73 -41 0 -5 25 -22 54 -37 54 -28 68 -26 69 12 0
15 -92 90 -111 90 -5 0 -9 5 -9 11 0 6 -7 9 -14 6 -10 -4 -13 -1 -9 9 3 8 13
12 22 10 9 -3 21 -2 27 2 17 11 24 53 11 58 -7 2 -12 25 -12 57 0 28 -4 55 -9
59 -13 9 19 38 41 37 10 0 13 -3 6 -6 -10 -3 -9 -11 2 -34 9 -16 18 -29 21
-29 3 0 2 4 -1 10 -3 5 1 10 9 10 18 0 21 16 6 25 -14 8 -13 45 1 45 7 0 5 10
-5 25 l-16 25 55 -4 c37 -3 55 0 55 8 0 7 3 6 9 -2 6 -10 21 -12 51 -7 72 11
88 21 96 59 3 20 11 33 16 30 5 -3 4 3 -3 14 -7 12 -17 18 -23 15 -5 -3 -6 -1
-2 6 4 6 12 9 17 6 5 -4 9 -1 9 6 0 9 3 9 14 0 10 -8 21 -8 40 -1 18 7 33 7
46 0 20 -11 41 6 24 19 -22 15 -7 46 44 94 29 27 82 41 82 21 0 -22 21 -16 27
6 3 11 10 20 17 19 36 -4 47 2 41 21 -4 11 0 29 9 42 13 18 16 19 16 6 0 -9 5
-20 10 -23 7 -4 9 2 5 18 -5 20 -2 27 14 32 12 4 28 21 35 38 8 18 15 26 15
20 2 -21 31 -15 31 6 0 24 16 36 23 19 4 -10 6 -10 6 0 1 8 9 10 26 6 15 -4
25 -2 25 5 0 6 7 11 15 11 8 0 15 9 15 20 0 13 5 18 15 14 8 -4 15 -2 15 4 0
5 16 10 35 9 42 -1 68 21 68 57 0 18 5 26 18 26 10 0 21 -5 24 -11 5 -7 15 -5
31 6 14 9 29 13 34 10 6 -3 10 2 10 12 0 12 3 14 8 6 5 -7 13 -9 22 -3 12 7
12 11 0 25 -20 24 -60 38 -74 26 -7 -6 -23 -4 -43 4 -40 17 -43 25 -7 19 16
-3 23 -1 19 6 -3 5 -12 10 -19 10 -7 0 -18 11 -24 25 -11 25 -42 35 -42 14 0
-5 -4 -7 -10 -4 -14 9 -12 -8 3 -24 10 -11 9 -12 -3 -5 -8 4 -21 9 -30 9 -8 1
-26 5 -40 10 -25 8 -25 8 -6 -14 11 -11 14 -21 9 -21 -6 0 -26 17 -44 37 -18
21 -37 37 -41 36 -4 -2 -8 3 -8 11 0 7 -8 20 -17 27 -17 13 -17 12 -4 -6 9
-12 5 -10 -11 5 -35 35 -7 40 33 6 17 -14 36 -26 42 -25 7 0 2 5 -10 11 -13 6
-23 19 -23 30 0 18 -25 34 -149 93 -30 14 -56 23 -59 20 -3 -3 1 -5 8 -5 7 0
10 -3 6 -7 -3 -4 6 -13 21 -20 24 -11 25 -13 5 -9 -23 5 -24 4 -5 -16 l18 -21
-27 18 c-31 19 -61 14 -52 -10 8 -21 -13 -19 -43 5 -14 11 -29 18 -33 15 -3
-2 -7 2 -7 10 0 8 5 15 11 15 6 0 0 9 -14 20 -19 15 -21 20 -8 20 9 0 18 5 20
10 2 6 12 12 23 14 51 10 75 19 75 27 0 5 11 9 25 9 14 0 25 5 25 10 0 17 -51
11 -127 -15 -111 -36 -125 -50 -164 -157 -18 -51 -34 -99 -35 -108 -2 -8 -7
-47 -13 -85 -5 -39 -19 -90 -30 -115 -11 -25 -21 -54 -21 -66 0 -24 -25 -62
-35 -52 -4 4 -9 44 -12 90 -3 46 -9 85 -13 88 -10 7 -22 58 -26 104 -1 21 -7
42 -13 45 -6 4 -17 23 -25 43 -24 57 -60 105 -75 100 -10 -3 -12 0 -6 14 15
39 18 56 7 63 -6 3 -13 19 -16 34 -3 16 -1 25 5 22 5 -4 7 11 4 37 -3 23 -11
45 -17 49 -7 5 -7 8 1 10 8 3 12 43 14 117 2 95 4 112 18 112 14 0 15 6 6 43
-5 23 -9 63 -8 88 0 33 -5 51 -18 63 -11 10 -17 25 -14 36 3 10 -2 33 -10 52
-9 18 -20 59 -25 90 -8 52 -7 57 12 62 11 3 17 8 13 12 -4 4 -1 14 6 22 9 13
9 14 0 8 -7 -4 -21 -2 -30 3 -17 10 -16 12 7 15 6 0 10 4 10 9 0 4 0 12 0 18
0 6 -6 9 -14 6 -10 -4 -11 4 -4 41 4 26 11 55 14 66 4 12 2 16 -5 12 -6 -4
-11 -2 -11 3 0 6 7 11 16 11 12 0 15 7 11 27 -3 15 2 38 10 52 13 22 13 23 0
9 -8 -10 -19 -18 -24 -18 -51 0 -196 -415 -192 -549 1 -31 -1 -82 -5 -113 -5
-39 -4 -58 3 -58 6 0 11 -9 11 -20 0 -11 4 -28 9 -38 19 -35 33 -100 27 -119
-5 -17 6 -52 42 -126 2 -5 -4 -5 -14 1 -11 5 -38 12 -62 16 -24 3 -50 13 -59
21 -19 20 -39 14 -34 -11 3 -19 3 -19 -18 0 -22 20 -30 9 -9 -12 16 -16 -3
-15 -25 2 -13 10 -15 21 -11 44 5 24 2 33 -10 38 -9 3 -14 9 -11 13 2 4 -6 7
-18 7 -13 -1 -21 4 -19 12 1 7 -10 17 -25 23 -57 23 -79 34 -102 51 -13 10
-28 15 -33 12 -5 -3 -14 -2 -21 3 -7 5 -22 10 -35 11 -36 2 -48 17 -61 80 -20
93 2 124 99 139 19 3 41 11 49 17 12 9 13 7 9 -9 -4 -16 0 -21 16 -20 12 0 26
3 33 8 8 5 9 0 6 -15 -3 -13 -2 -20 2 -16 5 4 14 3 22 -3 7 -6 13 -8 13 -4 0
4 6 2 14 -4 11 -9 18 -6 35 15 23 29 23 49 0 49 -8 0 -14 9 -14 20 0 11 6 19
13 17 8 -1 12 3 9 10 -2 7 4 29 15 48 10 19 18 42 18 51 0 8 11 22 25 29 14 7
25 19 25 26 0 6 6 14 14 17 13 5 16 22 35 170 5 37 13 73 18 80 6 6 13 24 17
40 3 15 10 27 15 27 10 0 6 -76 -7 -143 -10 -50 -5 -174 8 -182 10 -6 46 106
61 187 10 55 10 70 -3 95 -8 17 -13 44 -10 62 4 30 -10 43 -23 21 -3 -5 -11
-10 -17 -10 -7 0 -4 8 5 18 75 80 92 106 93 143 0 41 -14 53 -23 19 -3 -11
-11 -20 -18 -20 -15 0 -42 -54 -51 -99 -5 -25 -9 -29 -20 -20 -11 9 -14 8 -14
-5 0 -9 -4 -16 -10 -16 -5 0 -10 5 -10 10 0 6 -5 10 -11 10 -6 0 -9 -6 -6 -13
6 -17 -9 -44 -19 -34 -5 4 -9 33 -11 65 -3 75 -10 102 -27 102 -10 0 -19 20
-26 55 -6 30 -16 57 -21 60 -13 9 -11 46 2 43 6 -2 14 3 17 11 3 10 0 12 -12
8 -24 -10 -21 54 5 86 l20 27 -20 22 c-18 18 -21 19 -21 5 0 -23 -19 -21 -41
5 -11 11 -19 16 -19 11 0 -15 -49 -23 -57 -10 -4 6 -10 3 -14 -9 -7 -17 -8
-17 -8 -1 -1 19 -31 24 -31 5 0 -6 -3 -9 -6 -6 -3 4 -1 16 5 27 10 18 7 22
-19 36 -16 8 -30 20 -30 26 0 5 -10 14 -22 20 -59 27 -88 47 -76 52 9 4 7 6
-4 6 -9 1 -20 -4 -23 -9 -4 -6 -13 -7 -23 -1 -34 18 -112 -8 -156 -51 -15 -15
-32 -28 -36 -28 -4 0 -6 -12 -4 -27 1 -15 -1 -30 -5 -33 -19 -14 -60 -78 -53
-85 4 -4 -13 -4 -38 0 -25 4 -59 9 -75 10 -17 1 -43 10 -58 19 -29 20 -35 29
-13 20 7 -3 16 1 19 9 7 18 45 15 88 -7 18 -9 41 -14 51 -10 19 6 25 24 8 24
-5 0 -10 6 -10 14 0 8 -7 17 -16 20 -9 4 -13 2 -8 -5 14 -23 -33 11 -49 35
l-17 25 30 -10 c44 -16 58 -7 30 19 l-24 22 37 0 c19 0 39 5 42 10 3 6 1 10
-4 10 -27 0 10 53 44 64 30 9 49 44 34 62 -9 11 -8 14 4 14 26 0 27 15 7 53
-24 45 -25 54 -4 36 13 -10 17 -10 24 0 4 8 13 10 19 7 6 -4 11 0 11 10 0 13
3 14 14 5 11 -10 14 -9 12 3 -1 9 -5 19 -9 22 -14 14 -7 24 16 24 13 0 33 9
44 19 12 11 24 17 27 14 3 -4 6 -1 6 6 0 8 7 11 15 7 9 -3 15 1 15 11 0 10 4
13 13 7 7 -5 5 -2 -5 8 -33 30 -20 33 42 10 12 -5 12 -1 -2 20 -15 23 -16 29
-3 41 8 8 11 17 8 21 -4 3 -1 6 5 6 7 0 12 -4 12 -9 0 -5 7 -12 16 -15 12 -5
15 -2 10 10 -5 14 -4 15 9 4 13 -11 14 -6 12 40 -3 36 1 57 12 67 13 14 16 13
28 -3 12 -16 13 -16 13 -1 0 9 6 17 14 17 9 0 12 7 9 20 -4 16 0 20 21 20 19
0 30 -7 38 -27 9 -23 12 -25 15 -10 3 12 10 16 24 12 12 -4 19 -2 19 6 0 7 6
4 14 -7 17 -22 27 -15 30 20 0 14 4 26 9 26 4 0 7 14 7 31 0 20 4 28 12 23 8
-5 9 -1 4 12 -6 15 -5 17 5 7 21 -21 29 -15 29 22 0 19 5 35 10 35 11 0 14 -7
24 -52 4 -16 13 -28 20 -28 8 0 17 -6 19 -12 3 -7 6 0 6 15 1 27 2 27 22 13
32 -22 48 -11 43 32 l-5 37 31 -37 c29 -35 65 -44 53 -12 -3 8 1 14 11 14 9 0
15 -3 15 -7 -4 -23 3 -35 16 -29 8 3 15 1 15 -4 0 -5 15 -6 33 -4 17 3 38 6
45 6 6 1 12 5 12 10 0 5 9 4 19 -2 13 -7 22 -7 26 0 4 6 23 7 44 4 28 -5 40
-2 44 8 7 21 46 16 88 -10 46 -28 49 -28 49 2 0 14 5 28 12 32 7 4 8 3 4 -4
-6 -10 29 -33 56 -36 4 -1 14 -10 22 -21 10 -13 15 -15 16 -6 0 11 3 11 15 1
13 -11 14 -10 9 5 -5 13 -4 16 5 11 6 -4 28 -9 47 -11 31 -2 35 0 31 17 -4 14
-1 18 8 14 10 -3 12 0 8 11 -4 11 -2 14 5 9 7 -4 12 -2 12 3 0 6 -5 11 -12 11
-17 0 0 13 22 17 10 1 22 -2 25 -7 3 -6 11 -10 17 -10 6 0 5 7 -3 17 -13 17
-12 17 10 2 13 -8 25 -23 27 -33 3 -22 14 -34 14 -16 0 9 6 8 20 -5 11 -10 20
-13 20 -7 0 7 3 11 8 10 15 -3 42 15 42 29 0 11 6 10 29 -6 33 -24 47 -26 54
-8 4 7 6 6 6 -4 2 -29 28 -29 41 -1 10 24 13 25 23 11 10 -13 16 -14 30 -5 14
9 20 7 28 -6 15 -26 29 -22 29 9 0 35 12 22 16 -19 2 -17 9 -37 14 -42 13 -13
13 0 -1 27 -11 21 -11 21 7 5 29 -25 74 -34 74 -15 0 9 -9 22 -19 29 -13 9
-17 19 -12 27 5 8 11 9 15 3 3 -5 17 -7 31 -4 14 2 32 -1 40 -8 18 -15 45 2
45 30 0 10 6 23 14 29 12 10 16 8 21 -11 8 -26 32 -85 46 -110 5 -10 9 -25 9
-33 0 -8 7 -15 15 -15 8 0 15 -6 15 -12 0 -9 4 -8 11 2 8 11 12 12 16 3 6 -16
35 -17 51 -1 9 9 15 9 24 0 7 -7 20 -12 30 -12 10 0 18 -7 18 -16 0 -23 41
-56 62 -51 10 3 21 0 25 -6 3 -7 2 -9 -2 -4 -10 9 -35 -46 -35 -76 0 -19 1
-19 18 -4 10 10 22 14 25 10 4 -3 14 2 22 13 8 10 15 14 15 8 0 -8 11 -9 35
-4 19 4 35 4 35 0 0 -9 -25 -21 -55 -27 -11 -2 -24 -9 -30 -15 -7 -8 -6 -9 5
-3 13 7 13 6 2 -7 -20 -25 16 -33 42 -10 31 28 43 33 43 17 0 -8 -15 -21 -34
-30 -47 -23 -41 -38 7 -19 23 9 43 14 46 11 3 -3 -10 -19 -28 -36 -24 -23 -28
-31 -16 -31 9 0 20 -9 23 -21 4 -13 12 -18 22 -15 8 3 18 6 23 6 5 0 16 7 24
16 9 8 16 11 16 5 0 -5 -4 -13 -10 -16 -16 -10 -12 -25 5 -19 11 5 15 -1 15
-19 0 -14 4 -28 9 -31 5 -4 9 -23 9 -44 -1 -20 3 -45 7 -54 7 -17 9 -16 39 4
l31 22 -23 -26 -24 -26 31 -7 c17 -4 29 -11 25 -16 -3 -5 0 -9 6 -9 6 0 8 -4
5 -10 -3 -5 -14 -10 -23 -10 -13 0 -17 -10 -19 -45 -1 -26 3 -45 9 -45 7 0 6
-5 -1 -14 -10 -12 -7 -17 16 -29 15 -8 39 -17 53 -21 14 -3 36 -15 50 -27 l25
-20 -47 4 c-27 3 -48 1 -48 -4 0 -13 61 -49 83 -49 10 0 20 -7 23 -15 4 -8 16
-15 28 -15 17 0 18 -2 6 -10 -8 -5 -10 -10 -5 -10 6 0 1 -6 -9 -12 -18 -10
-17 -12 10 -24 27 -13 22 -14 -51 -9 -77 5 -155 -7 -155 -24 0 -5 27 -11 60
-15 47 -6 58 -10 53 -22 -3 -9 -17 -20 -30 -25 -16 -6 -23 -15 -19 -24 4 -10
-1 -15 -17 -16 -12 0 -17 -3 -11 -5 7 -3 10 -14 7 -24 -4 -14 0 -20 11 -20 10
0 13 -6 10 -15 -4 -10 0 -15 15 -15 12 0 24 -7 27 -15 4 -8 11 -15 18 -15 6 0
17 -9 24 -20 7 -12 16 -19 20 -16 13 8 44 -22 36 -35 -5 -9 -2 -10 9 -6 14 5
16 1 12 -24 -5 -26 -3 -30 13 -25 11 4 19 1 20 -6 0 -7 3 -22 5 -33 2 -11 0
-26 -6 -32 -6 -9 -6 -13 2 -13 6 0 11 -7 11 -15 0 -8 7 -15 15 -15 8 0 15 -4
15 -10 0 -5 -10 -10 -22 -10 -21 0 -21 0 -2 -15 14 -11 16 -15 4 -15 -11 0 -8
-6 9 -20 14 -12 21 -26 17 -35 -3 -9 -2 -13 3 -10 5 3 12 -4 16 -15 4 -12 15
-20 28 -20 18 0 19 -2 7 -10 -11 -7 -4 -10 26 -10 24 0 47 6 53 14 7 8 20 15
29 15 9 0 32 2 49 5 20 3 38 0 46 -8 11 -12 17 -11 36 3 13 10 21 25 19 34 -3
18 95 97 122 97 9 0 21 5 28 12 20 20 13 -1 -13 -39 -27 -40 -24 -64 5 -38 10
9 23 15 27 12 9 -6 98 75 151 137 26 31 35 37 42 26 6 -10 -1 -27 -23 -55 -43
-53 -69 -95 -60 -95 9 0 69 40 123 82 26 19 42 25 63 21 19 -4 26 -10 23 -19
-3 -8 1 -14 9 -14 25 0 17 -22 -21 -61 l-36 -36 26 -7 c14 -3 26 -12 26 -20 0
-25 -31 -75 -50 -81 -25 -8 -26 -25 -2 -25 16 -1 16 -1 0 -14 -10 -7 -16 -15
-13 -18 3 -2 -22 -17 -55 -33 -33 -16 -60 -32 -60 -36 0 -4 -21 -15 -47 -25
-56 -21 -80 -35 -81 -49 -1 -5 -9 -12 -19 -14 -25 -4 -44 -21 -37 -32 3 -5 -2
-9 -10 -9 -8 0 -17 -4 -20 -9 -9 -14 88 -7 103 7 7 7 16 10 19 7 3 -3 -4 -12
-16 -21 -29 -20 -29 -38 1 -30 12 4 42 9 67 11 25 2 56 6 68 9 17 4 22 1 19
-8 -5 -12 53 -1 142 28 16 6 21 5 17 -3 -7 -11 11 -15 48 -11 10 1 15 -3 12
-8 -6 -10 29 -4 84 13 l25 7 -24 -25 c-23 -25 -113 -64 -138 -59 -6 1 -15 -3
-19 -9 -5 -8 -2 -10 7 -5 8 4 3 -2 -11 -13 -14 -11 -29 -21 -35 -21 -5 0 -19
-8 -30 -16 -19 -15 -18 -15 22 -13 23 2 45 0 48 -4 3 -4 2 -5 -1 -3 -3 2 -20
0 -37 -6 -18 -6 -52 -12 -77 -14 -78 -7 -90 -9 -90 -16 0 -18 207 -3 265 18
12 4 17 3 12 -2 -5 -5 -27 -14 -50 -21 -39 -10 -40 -11 -12 -13 17 -1 39 -5
50 -10 13 -5 -13 -8 -70 -8 -219 0 -437 -10 -448 -21 -6 -6 -20 -11 -31 -11
-20 -1 -20 -1 -3 -11 13 -7 54 -6 143 5 122 15 126 15 182 -6 31 -12 66 -28
77 -35 11 -7 29 -13 42 -13 12 0 24 -4 27 -9 3 -5 21 -12 41 -15 19 -4 40 -12
47 -19 7 -7 23 -20 36 -29 l24 -16 -32 -7 c-18 -4 -56 -4 -86 0 -36 4 -54 3
-54 -4 0 -6 -7 -11 -16 -11 -10 0 -14 -6 -11 -15 5 -11 0 -13 -21 -9 -15 2
-67 11 -117 20 -49 8 -103 17 -120 20 -21 4 -26 3 -16 -4 11 -8 10 -11 -5 -15
-13 -3 -10 -5 9 -6 16 -1 26 3 22 9 -3 6 1 7 9 4 13 -5 12 -9 -7 -25 l-22 -18
38 -1 c30 0 37 -4 37 -19 0 -14 9 -21 31 -26 17 -4 33 -13 36 -21 3 -8 13 -14
23 -14 10 0 20 -9 23 -20 3 -14 14 -20 31 -20 14 0 26 -5 26 -11 0 -6 12 -10
28 -8 33 2 68 -11 53 -21 -6 -3 15 -15 46 -25 51 -16 55 -19 33 -25 -23 -6
-21 -8 28 -30 28 -12 52 -29 52 -36 0 -19 -3 -18 -61 11 -28 15 -62 31 -77 36
l-27 10 25 -26 25 -27 -30 8 c-16 4 -49 19 -73 33 -41 25 -78 45 -114 63 -21
10 -48 11 -48 1 0 -13 102 -103 116 -103 8 0 14 -4 14 -8 0 -5 26 -26 57 -48
39 -27 51 -40 40 -42 -10 -2 -15 -8 -12 -13 8 -12 -2 -11 -26 1 -13 8 -19 7
-19 0 0 -7 -6 -8 -19 0 -28 14 -36 12 -21 -5 27 -33 -2 -27 -38 7 -42 41 -79
54 -74 25 2 -14 -2 -17 -28 -12 -16 3 -30 3 -30 1 0 -10 56 -66 66 -66 6 0 17
-7 24 -15 10 -12 24 -14 55 -9 40 5 44 4 68 -28 15 -19 28 -50 29 -69 3 -35 0
-37 -50 -26 -7 2 -36 29 -65 60 -29 31 -58 57 -64 57 -22 0 -26 -23 -8 -36 13
-10 19 -28 20 -56 0 -24 4 -49 8 -55 5 -7 5 -18 2 -23 -4 -6 -2 -17 4 -24 12
-14 71 -132 71 -141 0 -10 -36 -4 -64 10 -16 9 -30 14 -32 12 -4 -4 8 -42 37
-122 26 -69 61 -214 57 -234 -2 -9 -23 45 -47 119 -57 177 -88 229 -136 230
-17 0 -15 -4 13 -26 17 -14 32 -30 32 -35 0 -6 -15 -1 -32 11 -29 19 -28 17 7
-14 23 -22 35 -39 28 -42 -16 -7 -3 -48 35 -108 17 -27 37 -65 43 -85 8 -24
49 -73 127 -151 64 -63 112 -109 107 -101 -5 8 7 3 27 -12 35 -27 55 -32 96
-21 15 4 22 14 22 30 0 29 32 39 90 30 25 -4 60 1 102 14 60 18 76 19 209 9
79 -6 176 -11 214 -13 39 -1 97 -10 129 -19 33 -9 61 -15 63 -13 9 8 52 267
69 406 25 200 25 590 0 790 -55 459 -171 849 -365 1235 -556 1104 -1617 1847
-2841 1990 -132 15 -507 27 -625 19z m213 -704 c10 -17 10 -20 -5 -20 -9 0
-13 3 -10 7 4 3 2 12 -4 20 -6 7 -7 13 -3 13 5 0 15 -9 22 -20z m1212 -280 c0
-5 -5 -10 -11 -10 -5 0 -7 5 -4 10 3 6 8 10 11 10 2 0 4 -4 4 -10z m-2392
-538 c13 11 15 10 10 -9 -4 -13 -2 -23 3 -23 5 0 9 10 10 23 0 12 3 16 6 10 2
-7 11 -13 18 -13 7 0 23 -9 36 -19 l24 -20 -48 4 c-52 5 -101 31 -90 48 5 8 8
7 11 -1 3 -10 7 -10 20 0z m-63 -12 c-3 -5 0 -7 8 -4 8 3 20 -2 27 -11 12 -14
9 -15 -24 -12 -43 5 -56 15 -36 27 20 13 33 13 25 0z m352 -72 c-3 -8 -6 -5
-6 6 -1 11 2 17 5 13 3 -3 4 -12 1 -19z m-623 -75 c-8 -9 -28 -11 -58 -7 -64
9 -57 20 12 19 47 0 56 -3 46 -12z m-39 -43 c-3 -5 -14 -10 -23 -9 -14 0 -13
2 3 9 27 11 27 11 20 0z m351 -28 c-8 -16 -14 -31 -13 -33 2 -2 -7 -15 -20
-28 -22 -24 -23 -24 -23 -3 0 11 14 36 30 54 17 18 30 37 30 42 0 5 3 7 6 4 3
-4 -1 -19 -10 -36z m369 -42 c3 -5 1 -10 -4 -10 -6 0 -11 5 -11 10 0 6 2 10 4
10 3 0 8 -4 11 -10z m246 -121 c-5 -13 -10 -19 -10 -12 -1 15 10 45 15 40 3
-2 0 -15 -5 -28z m-841 11 c0 -5 -2 -10 -4 -10 -3 0 -8 5 -11 10 -3 6 -1 10 4
10 6 0 11 -4 11 -10z m177 -32 c-3 -7 -5 -2 -5 12 0 14 2 19 5 13 2 -7 2 -19
0 -25z m-171 -12 c2 -11 -5 -20 -18 -24 l-22 -5 22 -8 c21 -8 31 -39 13 -39
-20 0 -18 -29 5 -55 27 -31 26 -42 -3 -27 -27 14 -49 3 -26 -14 14 -11 15 -13
3 -14 -12 0 -11 -4 4 -15 19 -14 19 -15 1 -35 -16 -18 -14 -25 8 -21 5 1 6 -3
2 -8 -3 -6 6 -20 20 -33 29 -25 33 -43 8 -34 -10 3 -4 -6 14 -22 25 -22 31
-33 28 -62 -2 -25 2 -37 14 -42 9 -4 -5 -7 -31 -7 -55 -1 -60 -9 -18 -33 17
-9 30 -21 30 -26 0 -19 -39 -52 -61 -52 -19 0 -21 -2 -9 -10 12 -8 12 -10 1
-10 -23 0 16 -37 47 -45 20 -5 23 -8 11 -16 -7 -5 -11 -9 -6 -9 4 0 0 -11 -9
-25 -8 -13 -13 -28 -10 -33 3 -5 -17 -14 -44 -21 -45 -12 -51 -11 -71 8 -12
11 -43 25 -69 32 -34 9 -47 17 -45 28 1 9 -2 22 -8 29 -5 7 -7 15 -3 19 3 3
-1 14 -10 24 -11 12 -13 23 -7 36 5 10 8 28 7 41 -1 12 4 22 12 22 8 0 11 8 9
21 -4 17 0 20 28 17 23 -2 32 1 32 12 0 8 9 16 20 18 33 6 39 19 14 33 -13 6
-36 22 -52 35 -16 14 -34 21 -44 17 -11 -4 -14 -3 -9 5 4 7 14 12 22 12 11 0
12 5 6 18 -4 9 -7 23 -6 30 1 6 2 19 3 28 1 10 7 14 17 10 9 -3 12 -2 9 5 -4
6 -13 8 -20 5 -18 -7 -26 51 -8 65 7 6 10 15 8 20 -9 14 29 45 50 40 17 -3 18
-1 6 13 -12 14 -11 16 5 17 13 0 14 2 5 6 -11 5 -11 7 0 14 9 6 10 12 4 17 -6
4 -10 14 -10 22 0 11 9 14 35 12 l35 -4 -20 22 -20 23 23 -7 c12 -4 22 -3 22
2 0 18 53 -3 56 -22z m748 -107 c-9 -15 -34 -10 -28 5 3 8 12 12 20 9 8 -3 11
-9 8 -14z m-64 1 c0 -5 -2 -10 -4 -10 -3 0 -8 5 -11 10 -3 6 -1 10 4 10 6 0
11 -4 11 -10z m-229 -74 c-6 -7 -9 -15 -6 -18 9 -9 -18 -25 -52 -32 -18 -4
-34 -3 -38 4 -3 5 -12 7 -18 4 -9 -5 -9 -4 -1 6 7 6 23 13 37 13 14 1 23 5 21
9 -7 10 29 26 45 20 9 -3 11 0 6 8 -5 9 -4 11 4 6 8 -6 9 -12 2 -20z m3219
-59 c0 -2 -10 -12 -22 -23 l-23 -19 19 23 c18 21 26 27 26 19z m-3870 -148
c11 -3 8 -11 -14 -34 -16 -16 -26 -24 -22 -17 4 7 2 19 -4 27 -9 11 -9 17 2
28 7 8 15 11 18 7 3 -4 12 -9 20 -11z m3961 -213 c-23 -24 -29 -35 -19 -39 7
-3 2 -6 -12 -6 -15 -1 -31 -6 -38 -13 -7 -7 -12 -8 -12 -3 0 4 17 24 38 43 21
19 28 29 15 23 -12 -6 -30 -11 -40 -10 -14 1 73 35 96 38 3 1 -10 -14 -28 -33z
m-3202 -85 c9 -6 10 -11 2 -15 -13 -8 -31 1 -31 15 0 11 11 11 29 0z m-526
-140 c-5 -3 -8 -23 -8 -43 0 -40 30 -78 62 -78 22 -1 47 -19 56 -42 9 -24 -4
-22 -47 7 -33 23 -56 31 -56 21 0 -2 7 -20 15 -41 16 -38 12 -75 -8 -75 -6 0
-1 -7 11 -16 13 -9 21 -22 18 -29 -2 -7 0 -17 6 -23 10 -10 3 -32 -10 -32 -16
0 -54 100 -50 130 3 20 -4 47 -19 77 -25 51 -28 88 -12 146 10 38 11 38 30 21
11 -10 16 -20 12 -23z m57 -40 c0 -17 -18 -21 -24 -6 -3 9 0 15 9 15 8 0 15
-4 15 -9z m30 -61 c0 -5 -2 -10 -4 -10 -3 0 -8 5 -11 10 -3 6 -1 10 4 10 6 0
11 -4 11 -10z m517 -205 l28 -25 -37 17 c-21 9 -38 20 -38 25 0 15 19 8 47
-17z m313 -60 c6 -30 10 -67 8 -82 -2 -21 -9 -6 -25 52 -11 44 -19 83 -16 88
10 16 22 -5 33 -58z m-366 41 c-4 -10 5 -16 25 -21 17 -4 31 -11 31 -15 0 -9
-8 -8 -45 6 -21 8 -30 10 -42 13 -5 1 1 8 11 16 24 19 27 19 20 1z m-474 -31
c0 -8 -7 -15 -16 -15 -14 0 -14 3 -4 15 7 8 14 15 16 15 2 0 4 -7 4 -15z m409
-27 c12 -16 10 -18 -19 -18 -32 0 -33 0 -15 20 10 11 19 19 19 18 1 -2 8 -11
15 -20z m76 -8 c3 -5 0 -10 -7 -10 -9 0 -9 -3 2 -10 9 -6 10 -10 3 -10 -7 0
-17 9 -23 20 -8 16 -8 20 4 20 8 0 18 -4 21 -10z m120 -50 c4 -6 -6 -10 -24
-10 -16 0 -33 5 -36 10 -4 6 6 10 24 10 16 0 33 -4 36 -10z m-75 -10 c12 -8
11 -10 -7 -10 -13 0 -23 5 -23 10 0 13 11 13 30 0z m299 -50 c0 -10 -3 -8 -9
5 -12 27 -12 43 0 25 5 -8 9 -22 9 -30z m446 20 c3 -5 2 -10 -4 -10 -5 0 -13
5 -16 10 -3 6 -2 10 4 10 5 0 13 -4 16 -10z m165 0 c8 -5 11 -12 7 -16 -4 -4
1 -13 11 -20 9 -7 12 -14 5 -14 -6 0 -21 14 -33 30 -21 30 -18 38 10 20z
m-125 -20 c3 -5 2 -10 -4 -10 -5 0 -13 5 -16 10 -3 6 -2 10 4 10 5 0 13 -4 16
-10z m-758 -18 c-10 -10 -15 -21 -12 -23 2 -3 -11 -3 -30 -1 -19 2 -32 8 -29
14 3 5 13 7 21 4 21 -8 39 4 22 15 -10 6 -5 9 15 9 28 0 28 -1 13 -18z m373
-2 c0 -5 -4 -10 -10 -10 -5 0 -10 5 -10 10 0 6 5 10 10 10 6 0 10 -4 10 -10z
m-65 -75 c9 -33 26 -87 36 -119 11 -33 17 -61 15 -63 -5 -5 -86 234 -86 254 0
20 19 -20 35 -72z m775 -27 c0 -15 -18 0 -41 35 l-22 32 31 -29 c18 -17 32
-34 32 -38z m-710 18 c0 -3 -4 -8 -10 -11 -5 -3 -10 -1 -10 4 0 6 5 11 10 11
6 0 10 -2 10 -4z m780 -82 c0 -2 -9 0 -20 6 -11 6 -20 13 -20 16 0 2 9 0 20
-6 11 -6 20 -13 20 -16z m35 6 c3 -5 1 -10 -4 -10 -6 0 -11 5 -11 10 0 6 2 10
4 10 3 0 8 -4 11 -10z m65 0 c12 -8 11 -10 -7 -10 -12 0 -25 5 -28 10 -8 13
15 13 35 0z m-160 -20 c6 -11 8 -20 6 -20 -3 0 -10 9 -16 20 -6 11 -8 20 -6
20 3 0 10 -9 16 -20z m-2940 -290 c0 -5 -2 -10 -4 -10 -3 0 -8 5 -11 10 -3 6
-1 10 4 10 6 0 11 -4 11 -10z m-33 -34 c-10 -8 -19 -23 -20 -34 0 -11 -4 -19
-8 -16 -4 2 -10 0 -14 -6 -3 -5 -1 -10 5 -10 6 0 3 -11 -6 -25 -9 -14 -14 -28
-10 -32 3 -4 -2 -15 -11 -25 -16 -18 -16 -18 1 -12 16 6 16 5 1 -32 -16 -40
-70 -102 -80 -93 -3 3 3 17 13 30 10 13 17 30 16 37 -1 6 -2 17 -3 23 0 6 -8
9 -15 6 -10 -4 -13 -1 -9 9 3 7 0 14 -7 14 -6 0 -8 5 -5 10 4 6 2 17 -5 25 -9
11 -7 16 9 25 12 6 27 23 35 38 9 17 36 39 68 55 59 29 72 33 45 13z m538 -26
c3 -5 -1 -10 -9 -10 -9 0 -16 5 -16 10 0 6 4 10 9 10 6 0 13 -4 16 -10z m-318
-106 c-3 -3 -12 -4 -19 -1 -8 3 -5 6 6 6 11 1 17 -2 13 -5z m363 -17 c24 -4
41 -18 38 -29 -6 -16 -66 -17 -79 -2 -6 8 -18 14 -25 14 -8 0 -14 6 -14 14 0
12 30 14 80 3z m-47 -87 c8 0 7 -4 -1 -12 -9 -9 -16 -8 -30 6 -16 18 -16 19 1
12 10 -3 24 -6 30 -6z m1710 3 c-7 -2 -21 -2 -30 0 -10 3 -4 5 12 5 17 0 24
-2 18 -5z m60 0 c-7 -2 -21 -2 -30 0 -10 3 -4 5 12 5 17 0 24 -2 18 -5z
m-1783 -50 c3 -3 -7 -3 -23 -1 -43 8 -41 -8 3 -20 42 -10 56 -6 40 14 -8 9 -4
12 15 10 14 0 25 -6 25 -12 0 -5 10 -15 23 -20 12 -6 17 -9 11 -8 -6 1 -16 -2
-22 -8 -13 -13 21 -48 45 -48 7 0 13 -5 13 -11 0 -6 -12 -9 -27 -7 -15 2 -28
-2 -30 -9 -3 -7 0 -13 7 -13 6 0 8 -4 5 -10 -3 -5 1 -10 9 -10 9 0 16 -7 16
-15 0 -8 6 -15 13 -15 10 0 13 -14 11 -50 -2 -34 1 -50 9 -51 7 0 -4 -7 -23
-14 l-35 -13 43 -1 c23 -1 42 -5 42 -10 0 -5 -21 -7 -47 -5 -51 3 -43 -1 22
-11 33 -6 37 -8 21 -17 -21 -12 -194 -2 -217 13 -10 6 -8 9 11 9 20 0 22 2 10
10 -10 6 -22 4 -37 -6 -24 -15 -73 -10 -73 8 0 6 7 8 15 5 8 -4 17 -2 20 3 4
6 12 10 18 10 7 0 6 -4 -3 -10 -17 -11 -9 -13 14 -4 13 5 14 10 5 20 -16 19
29 28 77 15 52 -15 54 -14 54 10 0 15 -5 19 -15 15 -20 -7 -76 13 -95 34 -8 9
-36 25 -62 34 -27 10 -48 22 -48 27 0 12 17 12 24 0 3 -5 16 -11 28 -14 21 -5
21 -5 6 7 -10 7 -18 16 -18 19 0 4 8 4 18 0 12 -4 9 3 -10 23 -36 38 -25 59
26 50 47 -9 47 8 0 30 l-35 17 25 17 c19 12 23 19 15 27 -8 8 0 9 32 2 24 -6
46 -13 49 -16z m1838 -19 c12 -8 22 -10 22 -5 0 6 5 11 10 11 15 0 7 -24 -10
-31 -8 -4 -25 -1 -37 7 -19 12 -23 12 -32 -4 -6 -9 -11 -14 -11 -9 0 10 23 47
30 47 3 0 16 -7 28 -16z m-1668 -182 c0 -13 -12 -22 -22 -16 -10 6 -1 24 13
24 5 0 9 -4 9 -8z m1356 -177 c4 -8 13 -15 22 -15 8 0 13 -3 9 -6 -3 -4 -22
-3 -41 0 -25 5 -34 11 -29 21 7 19 32 19 39 0z m-1459 -1 c-3 -3 -12 -4 -19
-1 -8 3 -5 6 6 6 11 1 17 -2 13 -5z m93 -30 c0 -12 -6 -15 -22 -10 -13 3 -33
6 -46 6 -13 0 -20 4 -17 10 3 6 24 10 46 10 29 0 39 -4 39 -16z m1270 -39 c-7
-9 -15 -13 -17 -11 -7 7 7 26 19 26 6 0 6 -6 -2 -15z m-1295 -115 c18 -8 17
-9 -7 -9 -16 -1 -28 4 -28 9 0 12 8 12 35 0z m-45 -4 c0 -3 -4 -8 -10 -11 -5
-3 -10 -1 -10 4 0 6 5 11 10 11 6 0 10 -2 10 -4z m1225 -62 c-26 -19 -28 -51
-4 -57 24 -6 24 -30 2 -48 -14 -12 -16 -12 -9 1 4 8 -1 4 -12 -9 -13 -16 -25
-22 -36 -18 -10 4 -14 11 -11 17 3 5 2 10 -4 10 -6 0 -8 7 -5 15 6 15 -19 48
-30 38 -3 -3 -8 1 -11 9 -4 9 -15 13 -29 11 -13 -3 -27 0 -30 6 -5 7 3 11 21
12 15 0 55 6 88 14 82 18 95 18 70 -1z m92 -28 c-2 -5 -10 -11 -18 -14 -11 -3
-11 -2 1 7 13 10 13 12 0 21 -8 5 -22 10 -30 11 -10 0 -8 3 5 9 21 8 49 -14
42 -34z m-40 -8 c-3 -8 -6 -5 -6 6 -1 11 2 17 5 13 3 -3 4 -12 1 -19z m-27 2
c0 -5 -5 -10 -11 -10 -5 0 -7 5 -4 10 3 6 8 10 11 10 2 0 4 -4 4 -10z m80 -40
c0 -11 -4 -20 -8 -20 -4 0 -8 9 -9 20 -1 11 2 20 8 20 5 0 9 -9 9 -20z m-18
-52 c-7 -7 -12 -8 -12 -2 0 14 12 26 19 19 2 -3 -1 -11 -7 -17z m-1342 -8 c0
-13 -11 -13 -30 0 -12 8 -11 10 8 10 12 0 22 -4 22 -10z m1190 -9 c0 -4 -12
-13 -26 -20 -15 -6 -24 -14 -21 -18 11 -10 -13 -43 -31 -43 -10 0 -28 -7 -41
-16 -23 -17 -23 -16 -16 14 5 25 3 31 -15 37 -21 7 -21 7 2 24 27 21 61 35 54
22 -3 -5 1 -11 9 -15 17 -6 68 18 58 28 -4 4 0 4 10 0 9 -3 17 -9 17 -13z m46
-67 c-15 -14 -35 -24 -43 -22 -20 4 -17 23 5 23 9 0 23 6 30 13 7 6 19 12 25
12 7 0 -1 -12 -17 -26z m-252 -13 c18 -7 18 -8 3 -14 -9 -3 -17 -2 -17 3 0 5
-10 11 -22 13 -19 4 -20 4 -3 5 11 0 29 -3 39 -7z m-31 -28 c-7 -2 -21 -2 -30
0 -10 3 -4 5 12 5 17 0 24 -2 18 -5z m320 -127 c-19 -27 -33 -33 -33 -15 0 11
42 50 48 44 2 -2 -4 -15 -15 -29z m-298 14 c-3 -5 -11 -10 -16 -10 -6 0 -7 5
-4 10 3 6 11 10 16 10 6 0 7 -4 4 -10z m283 -117 c-8 -10 -18 -27 -23 -38 -5
-13 -9 -16 -12 -7 -4 10 -8 10 -21 0 -10 -7 -1 5 17 25 34 36 68 54 39 20z
m-498 -13 c0 -5 -5 -10 -11 -10 -5 0 -7 5 -4 10 3 6 8 10 11 10 2 0 4 -4 4
-10z m40 6 c0 -2 -7 -7 -16 -10 -8 -3 -12 -2 -9 4 6 10 25 14 25 6z m-70 -15
c0 -6 -9 -9 -20 -8 -11 1 -20 5 -20 9 0 4 9 8 20 8 11 0 20 -4 20 -9z m-53 -7
c-3 -3 -12 -4 -19 -1 -8 3 -5 6 6 6 11 1 17 -2 13 -5z m-62 -38 c-22 -7 -58
-23 -80 -36 l-40 -24 24 27 c26 28 67 45 111 45 19 1 15 -3 -15 -12z m671 -43
c-8 -15 -15 -22 -16 -15 0 14 22 53 28 47 2 -2 -3 -16 -12 -32z m164 -35 c0
-26 -4 -38 -8 -30 -8 12 -4 72 4 72 2 0 4 -19 4 -42z m466 5 c-10 -10 -19 5
-10 18 6 11 8 11 12 0 2 -7 1 -15 -2 -18z m-916 -2 c-4 -9 -12 -27 -18 -41 -6
-15 -18 -26 -31 -27 -12 -1 -19 2 -16 7 3 6 -1 7 -9 4 -9 -3 -16 -10 -16 -16
0 -5 5 -6 12 -2 7 4 8 3 4 -4 -9 -15 -38 -3 -32 14 3 7 1 16 -5 19 -5 4 -7 10
-4 15 3 5 -7 16 -22 24 -27 14 -25 14 39 11 37 -2 70 -1 72 4 3 4 12 8 20 8
10 0 12 -5 6 -16z m24 -48 c-17 -35 -44 -52 -44 -28 0 6 4 10 9 10 5 0 13 3
17 8 4 4 2 7 -4 7 -7 0 -2 11 10 25 29 34 34 24 12 -22z m1341 17 c-10 -11
-23 -20 -29 -20 -6 0 0 9 14 20 32 25 38 25 15 0z m-1645 0 c-17 -11 -15 -13
30 -28 19 -7 25 -10 13 -8 -12 2 -28 -3 -34 -10 -7 -8 -18 -13 -26 -10 -8 3
-13 -2 -13 -12 0 -13 -2 -14 -9 -3 -6 10 -16 3 -41 -27 -36 -45 -68 -66 -50
-33 8 15 6 19 -5 17 -8 -1 -21 -8 -28 -16 -9 -10 -9 -11 0 -6 9 5 11 2 7 -8
-3 -9 -10 -14 -14 -11 -5 3 -16 -5 -24 -17 -11 -15 -16 -18 -16 -8 -1 8 -9 -1
-20 -20 -11 -19 -19 -29 -20 -23 0 17 35 74 42 68 10 -10 28 22 22 39 -6 16
-24 13 -24 -5 0 -6 5 -7 10 -4 11 7 14 -8 3 -19 -4 -3 -12 3 -18 15 -11 19
-13 19 -18 5 -5 -11 -3 -15 5 -10 6 4 8 3 5 -4 -9 -14 -43 -8 -39 7 1 7 -8 5
-23 -5 -14 -9 -23 -19 -21 -22 3 -3 14 1 23 9 15 11 15 10 -1 -9 -14 -16 -22
-19 -27 -11 -5 9 -17 6 -44 -9 -54 -32 -53 -27 4 18 28 22 55 40 60 40 6 0 14
8 20 17 5 10 13 15 17 11 3 -4 19 -1 35 8 16 8 29 12 29 9 0 -4 14 3 30 15 17
12 36 23 43 24 26 5 93 29 102 37 5 5 14 9 20 9 5 0 3 -4 -5 -10z m168 -25 c2
-1 -3 -5 -11 -8 -7 -3 -19 4 -26 15 -11 18 -10 18 11 7 13 -6 24 -13 26 -14z
m-48 -10 c9 -11 7 -12 -9 -8 -11 3 -25 11 -31 18 -9 11 -7 12 9 8 11 -3 25
-11 31 -18z m1480 15 c0 -5 -5 -10 -11 -10 -5 0 -7 5 -4 10 3 6 8 10 11 10 2
0 4 -4 4 -10z m-1268 -36 c-22 -16 -26 -11 -11 15 9 14 16 16 20 9 4 -7 0 -17
-9 -24z m404 14 c0 -12 -8 -23 -16 -26 -12 -3 -12 -2 -3 8 6 7 9 19 6 26 -3 8
-1 14 5 14 5 0 9 -10 8 -22z m-496 -8 c0 -5 -5 -10 -11 -10 -5 0 -7 5 -4 10 3
6 8 10 11 10 2 0 4 -4 4 -10z m1030 6 c0 -3 -4 -8 -10 -11 -5 -3 -10 -1 -10 4
0 6 5 11 10 11 6 0 10 -2 10 -4z m360 -10 c0 -7 -66 -46 -76 -46 -5 0 9 12 31
25 42 26 45 28 45 21z m-1490 -21 c-15 -18 1 -20 18 -3 7 7 12 9 12 5 0 -3
-21 -21 -47 -38 -27 -18 -42 -25 -34 -16 7 9 10 17 5 17 -5 1 5 12 21 25 34
28 43 32 25 10z m67 -10 c0 -8 -4 -12 -9 -9 -4 3 -8 1 -8 -5 0 -6 -14 -18 -32
-27 -18 -9 -58 -38 -90 -65 -65 -54 -74 -59 -56 -29 7 11 15 20 18 20 3 0 41
29 85 64 44 36 83 65 86 65 3 1 6 -6 6 -14z m553 -25 c-8 -5 -19 -10 -25 -10
-5 0 -3 5 5 10 8 5 20 10 25 10 6 0 3 -5 -5 -10z m-710 -56 c-8 -8 -23 -20
-34 -25 -13 -6 -10 0 9 15 34 29 43 33 25 10z m560 -88 c0 -2 -8 -10 -17 -17
-16 -13 -17 -12 -4 4 13 16 21 21 21 13z m290 -4 c0 -5 -7 -17 -15 -28 -14
-18 -14 -17 -4 9 12 27 19 34 19 19z m690 -75 c0 -2 -15 -14 -32 -27 l-33 -23
24 26 c21 23 41 35 41 24z m-807 -72 c-3 -9 -8 -14 -10 -11 -3 3 -2 9 2 15 9
16 15 13 8 -4z m665 -2 c-10 -2 -28 -2 -40 0 -13 2 -5 4 17 4 22 1 32 -1 23
-4z m45 -32 c-15 -22 -30 -38 -32 -36 -3 4 49 75 56 75 2 0 -8 -18 -24 -39z
m-1646 -27 c-3 -3 -12 -4 -19 -1 -8 3 -5 6 6 6 11 1 17 -2 13 -5z m513 2 c0
-2 -8 -10 -17 -17 -16 -13 -17 -12 -4 4 13 16 21 21 21 13z m-710 -31 c-7 -9
-15 -13 -18 -10 -3 2 1 11 8 20 7 9 15 13 18 10 3 -2 -1 -11 -8 -20z m1051 -8
c-10 -9 -11 -8 -5 6 3 10 9 15 12 12 3 -3 0 -11 -7 -18z m-1048 -27 c-10 -11
-19 -20 -21 -20 -1 0 2 9 8 20 6 11 15 20 20 20 6 0 2 -9 -7 -20z m71 -5 c-9
-14 -20 -25 -25 -25 -5 0 -6 -6 -3 -13 3 -8 -2 -14 -11 -14 -8 0 -13 5 -10 11
3 6 8 18 11 27 4 13 32 33 52 38 1 1 -5 -10 -14 -24z m1008 -7 c-8 -8 -9 -4
-5 13 4 13 8 18 11 10 2 -7 -1 -18 -6 -23z m518 -18 c0 -5 -5 -10 -11 -10 -5
0 -7 5 -4 10 3 6 8 10 11 10 2 0 4 -4 4 -10z m-1603 -45 c-6 -19 -14 -35 -19
-35 -5 0 -6 5 -3 10 3 6 1 10 -4 10 -6 0 -11 5 -11 11 0 6 7 9 15 5 8 -3 14
-2 14 2 -3 17 2 32 10 32 5 0 4 -15 -2 -35z m1559 20 c-11 -8 -25 -15 -30 -15
-6 0 -2 7 8 15 11 8 25 15 30 15 6 0 2 -7 -8 -15z m-1116 -53 c0 -5 -7 -17
-16 -28 -8 -10 -14 -14 -11 -9 2 6 7 18 10 28 7 17 17 23 17 9z m1405 -52 c-3
-5 -11 -10 -16 -10 -6 0 -7 5 -4 10 3 6 11 10 16 10 6 0 7 -4 4 -10z m-878
-32 c-3 -8 -6 -5 -6 6 -1 11 2 17 5 13 3 -3 4 -12 1 -19z m33 2 c0 -5 -5 -10
-11 -10 -5 0 -7 5 -4 10 3 6 8 10 11 10 2 0 4 -4 4 -10z m20 -21 c-7 -11 -14
-19 -16 -16 -7 7 7 37 17 37 6 0 5 -9 -1 -21z m764 -6 c4 -10 4 -14 0 -10 -4
4 -13 2 -21 -4 -16 -14 -17 3 -1 19 15 15 15 15 22 -5z m-815 -58 c-23 -38
-32 -45 -23 -17 12 36 27 61 35 56 4 -2 -1 -20 -12 -39z m-549 3 c0 -23 -3
-29 -11 -21 -6 6 -8 20 -4 32 9 30 15 26 15 -11z m524 8 c-3 -9 -10 -16 -15
-16 -4 0 -6 -6 -4 -12 3 -7 -4 -24 -15 -38 -15 -19 -20 -21 -20 -8 0 9 5 18
11 20 5 2 11 10 13 18 2 17 29 61 33 56 2 -2 1 -11 -3 -20z m97 -63 c-10 -17
-10 -16 -11 3 0 23 13 41 18 25 2 -6 -1 -18 -7 -28z m-35 -40 c-6 -20 -10 -23
-16 -13 -5 7 -3 21 3 31 15 24 21 16 13 -18z m-695 -44 c-10 -23 -10 -23 -10
7 -1 17 2 34 7 38 11 12 14 -18 3 -45z m726 19 c-3 -8 -6 -5 -6 6 -1 11 2 17
5 13 3 -3 4 -12 1 -19z m-90 -30 c-3 -7 -5 -2 -5 12 0 14 2 19 5 13 2 -7 2
-19 0 -25z m50 -40 c-2 -13 -4 -5 -4 17 -1 22 1 32 4 23 2 -10 2 -28 0 -40z
m53 22 c0 -5 -2 -10 -4 -10 -3 0 -8 5 -11 10 -3 6 -1 10 4 10 6 0 11 -4 11
-10z m-1420 -180 c0 -5 -4 -10 -9 -10 -5 0 -16 -3 -24 -6 -8 -3 -17 2 -20 10
-5 12 1 16 23 16 17 0 30 -4 30 -10z m973 3 c-7 -2 -19 -2 -25 0 -7 3 -2 5 12
5 14 0 19 -2 13 -5z m160 -40 c-7 -2 -21 -2 -30 0 -10 3 -4 5 12 5 17 0 24 -2
18 -5z m-76 -9 c-3 -3 -12 -4 -19 -1 -8 3 -5 6 6 6 11 1 17 -2 13 -5z m93 -24
c-24 -15 -36 -11 -14 4 10 8 21 12 24 10 2 -3 -2 -9 -10 -14z m-50 -20 c-8 -5
-19 -10 -25 -10 -5 0 -3 5 5 10 8 5 20 10 25 10 6 0 3 -5 -5 -10z m210 -4 c0
-3 -4 -8 -10 -11 -5 -3 -10 -1 -10 4 0 6 5 11 10 11 6 0 10 -2 10 -4z m-313
-162 c-3 -3 -12 -4 -19 -1 -8 3 -5 6 6 6 11 1 17 -2 13 -5z m63 -124 c0 -5
-12 -10 -27 -9 l-28 1 25 8 c14 4 26 8 28 9 1 1 2 -3 2 -9z m0 -60 c-8 -5 -22
-9 -30 -9 -10 0 -8 3 5 9 27 12 43 12 25 0z m-63 -46 c-3 -3 -12 -4 -19 -1 -8
3 -5 6 6 6 11 1 17 -2 13 -5z m193 2 c0 -2 -9 -6 -20 -9 -11 -3 -18 -1 -14 4
5 9 34 13 34 5z"/>
<path d="M2070 4972 c0 -12 19 -26 26 -19 2 2 -2 10 -11 17 -9 8 -15 8 -15 2z"/>
<path d="M1578 3313 c7 -3 16 -2 19 1 4 3 -2 6 -13 5 -11 0 -14 -3 -6 -6z"/>
<path d="M1560 3100 c0 -12 28 -25 36 -17 3 3 -4 10 -15 17 -15 7 -21 7 -21 0z"/>
<path d="M1490 3040 c8 -5 20 -10 25 -10 6 0 3 5 -5 10 -8 5 -19 10 -25 10 -5
0 -3 -5 5 -10z"/>
<path d="M2650 2400 c-8 -5 -10 -10 -5 -10 6 0 17 5 25 10 8 5 11 10 5 10 -5
0 -17 -5 -25 -10z"/>
<path d="M2425 1820 c-3 -5 -2 -10 4 -10 5 0 13 5 16 10 3 6 2 10 -4 10 -5 0
-13 -4 -16 -10z"/>
<path d="M2670 6414 c0 -8 5 -12 10 -9 6 4 8 11 5 16 -9 14 -15 11 -15 -7z"/>
<path d="M3666 6243 c-6 -14 -5 -15 5 -6 7 7 10 15 7 18 -3 3 -9 -2 -12 -12z"/>
<path d="M3625 6230 c3 -5 8 -10 11 -10 2 0 4 5 4 10 0 6 -5 10 -11 10 -5 0
-7 -4 -4 -10z"/>
<path d="M3391 6144 c0 -11 3 -14 6 -6 3 7 2 16 -1 19 -3 4 -6 -2 -5 -13z"/>
<path d="M4715 5830 c-5 -8 -19 -10 -39 -6 -31 6 -31 6 -8 -10 18 -13 26 -13
38 -3 8 6 17 9 21 6 3 -4 -5 -15 -18 -26 -21 -18 -21 -20 -6 -21 10 0 15 5 12
10 -4 7 2 9 17 7 12 -2 17 -2 9 0 -9 3 -10 7 -3 12 7 4 6 12 -3 24 -9 13 -15
15 -20 7z"/>
<path d="M4768 5758 c12 -6 22 -15 22 -19 0 -5 6 -6 14 -3 8 3 17 0 22 -7 4
-7 2 -15 -4 -17 -7 -2 -12 -11 -12 -20 0 -12 -3 -13 -8 -5 -13 20 -143 18
-312 -4 l-45 -6 20 23 c19 22 19 23 1 17 -15 -6 -17 -3 -13 12 3 14 0 17 -14
14 -11 -3 -19 -10 -19 -15 0 -23 -56 -73 -83 -74 -15 -1 -27 3 -27 7 0 5 -6 8
-12 7 -7 -2 -12 5 -12 15 2 24 -8 21 -30 -8 -10 -13 -23 -22 -29 -18 -5 3 -7
2 -4 -4 8 -13 -11 -83 -23 -83 -11 0 -14 33 -4 43 11 10 13 67 3 61 -5 -3 -9
-18 -9 -34 0 -21 -4 -28 -14 -24 -14 5 -16 -5 -29 -112 -2 -17 -8 -37 -12 -45
-8 -12 -6 -12 8 0 16 12 17 12 9 -10 -6 -14 -22 -27 -41 -33 -21 -6 -31 -15
-31 -28 0 -11 5 -16 10 -13 14 8 13 1 -5 -42 -17 -39 -20 -77 -6 -69 12 8 22
-20 15 -39 -4 -8 -11 -15 -16 -15 -6 0 0 -8 12 -18 18 -15 21 -22 12 -38 -7
-13 -7 -26 -1 -35 7 -12 9 -12 9 1 0 13 2 13 9 0 6 -8 7 -18 4 -23 -3 -5 4 -4
14 2 11 6 22 9 24 8 2 -1 -2 3 -9 10 -19 16 -6 33 24 33 16 0 24 5 22 12 -3 7
2 19 9 27 8 8 11 17 6 20 -15 11 -14 39 2 45 14 5 14 9 1 35 -15 27 -13 41 6
41 5 0 7 -9 3 -19 -3 -11 -1 -22 4 -26 7 -3 8 0 5 9 -4 10 3 20 20 27 27 13
33 25 15 31 -7 2 -4 17 10 41 11 20 18 37 15 37 -4 0 -1 7 6 15 7 8 19 15 27
15 12 0 14 -13 8 -72 l-6 -73 58 -68 c59 -71 113 -107 158 -107 55 0 111 47
141 118 7 18 18 31 23 28 12 -8 31 48 31 93 0 49 -15 97 -42 137 -27 39 -56
54 -103 54 -19 0 -37 5 -40 11 -5 7 -14 6 -28 -4 -27 -17 -47 -12 -47 13 0 14
5 17 22 12 16 -4 19 -2 13 8 -5 8 -4 11 3 6 6 -3 17 1 26 10 9 8 20 12 26 9
13 -8 52 4 46 14 -9 13 43 11 76 -5 l33 -15 -45 5 c-43 6 -44 5 -25 -10 20
-16 19 -16 -5 -10 -17 5 -20 4 -10 -2 8 -5 32 -13 54 -16 21 -4 36 -10 32 -13
-5 -5 30 -83 39 -83 2 0 -1 15 -6 32 -5 18 -9 34 -9 35 0 1 7 -1 17 -4 11 -4
14 -3 9 5 -13 21 75 14 112 -8 39 -24 49 -25 32 -5 -10 12 -10 15 3 15 8 0 17
9 20 21 4 14 -1 23 -16 29 -13 5 -16 9 -7 10 12 0 12 2 2 9 -8 4 -13 11 -13
15 1 3 -1 6 -4 6 -3 0 -19 7 -35 15 -32 17 -43 49 -12 38 13 -5 12 -1 -5 16
-12 11 -27 21 -33 21 -5 0 -10 4 -10 8 0 4 -15 8 -32 9 -31 2 -31 1 -10 -9z
m-337 -71 c-10 -9 -11 -8 -5 6 3 10 9 15 12 12 3 -3 0 -11 -7 -18z m-148 -80
c4 3 7 2 8 -3 9 -85 8 -94 -9 -94 -10 0 -23 -4 -30 -10 -8 -7 -9 -7 -3 1 11
14 3 41 -10 33 -5 -3 -9 2 -9 11 0 8 8 19 18 23 19 8 28 32 12 32 -5 0 -10 5
-10 11 0 8 4 9 13 0 8 -6 17 -8 20 -4z m-66 -72 c-4 -8 -11 -15 -17 -15 -14 0
-13 27 3 33 16 6 21 1 14 -18z m-44 0 c-3 -9 -8 -14 -10 -11 -3 3 -2 9 2 15 9
16 15 13 8 -4z m367 -20 c9 -10 9 -15 1 -15 -6 0 -11 -7 -11 -16 0 -8 -5 -12
-10 -9 -6 4 -8 11 -5 16 4 5 1 9 -4 9 -6 0 -11 7 -11 15 0 8 6 15 14 15 7 0
19 -7 26 -15z m-190 -30 c-7 -8 -17 -12 -23 -8 -6 4 -3 9 9 14 27 11 28 11 14
-6z m-166 -49 c-3 -9 -10 -13 -16 -10 -5 3 -4 12 3 20 15 18 22 13 13 -10z
m532 -73 c-11 -11 -19 6 -11 24 8 17 8 17 12 0 3 -10 2 -21 -1 -24z m-586 17
c0 -5 -4 -10 -10 -10 -5 0 -10 5 -10 10 0 6 5 10 10 10 6 0 10 -4 10 -10z
m583 -63 c-3 -5 -9 -3 -14 4 -4 7 -5 17 -2 22 3 5 9 3 14 -4 4 -7 5 -17 2 -22z
m-571 -2 c9 4 18 -1 22 -11 4 -12 2 -15 -9 -10 -8 3 -15 1 -15 -4 0 -6 -4 -10
-10 -10 -5 0 -10 7 -10 15 0 8 -4 15 -10 15 -5 0 -10 5 -10 11 0 8 4 8 14 0 7
-6 20 -9 28 -6z"/>
<path d="M4275 5530 c-3 -5 -1 -10 4 -10 6 0 11 5 11 10 0 6 -2 10 -4 10 -3 0
-8 -4 -11 -10z"/>
<path d="M3057 5679 c-16 -21 -13 -42 7 -68 8 -11 8 -13 0 -8 -7 4 -10 -2 -6
-18 2 -14 8 -25 13 -25 9 0 13 16 10 34 -1 5 3 13 10 17 7 4 14 15 15 23 1 9
-2 13 -8 10 -6 -4 -8 1 -4 13 4 12 1 25 -8 32 -11 10 -17 8 -29 -10z m18 -20
c-4 -5 -12 -9 -18 -8 -9 0 -8 2 1 6 6 2 9 10 6 15 -4 7 -2 8 5 4 6 -4 9 -12 6
-17z"/>
<path d="M4150 5675 c0 -8 2 -15 4 -15 2 0 6 7 10 15 3 8 1 15 -4 15 -6 0 -10
-7 -10 -15z"/>
<path d="M2852 5640 c0 -14 2 -19 5 -12 2 6 2 18 0 25 -3 6 -5 1 -5 -13z"/>
<path d="M2873 5622 c-1 -10 5 -19 13 -19 16 0 16 0 8 21 -8 22 -19 20 -21 -2z"/>
<path d="M3010 5625 c-7 -9 -10 -18 -7 -21 3 -3 10 4 17 15 13 25 8 27 -10 6z"/>
<path d="M2867 5525 c-4 -8 -2 -17 3 -20 6 -4 10 3 10 14 0 25 -6 27 -13 6z"/>
<path d="M3040 5510 c-7 -17 -10 -33 -8 -36 3 -3 11 9 17 27 14 42 7 49 -9 9z"/>
<path d="M4935 5500 c3 -5 11 -10 16 -10 6 0 7 5 4 10 -3 6 -11 10 -16 10 -6
0 -7 -4 -4 -10z"/>
<path d="M3006 5374 c-8 -21 -8 -39 1 -30 8 7 15 46 9 46 -2 0 -7 -7 -10 -16z"/>
<path d="M3356 5313 c-6 -14 -5 -15 5 -6 7 7 10 15 7 18 -3 3 -9 -2 -12 -12z"/>
<path d="M3116 5245 c-15 -8 -32 -13 -36 -10 -5 3 -11 1 -15 -4 -5 -9 28 -51
40 -51 2 0 14 18 25 40 11 22 19 40 18 40 -2 0 -16 -7 -32 -15z"/>
<path d="M3764 5154 c-7 -29 13 -126 31 -151 9 -13 16 -13 33 -4 39 21 28 104
-21 159 -26 29 -35 28 -43 -4z"/>
<path d="M4780 5171 c0 -5 -9 -7 -20 -4 -26 7 -59 -22 -53 -45 3 -13 -2 -18
-20 -20 -13 -1 -39 -8 -58 -17 l-34 -15 58 4 c43 2 57 0 57 -10 0 -8 -7 -14
-15 -14 -8 0 -15 -5 -15 -11 0 -6 7 -8 16 -5 9 3 25 6 37 7 21 0 21 1 2 9 -18
8 -18 9 5 10 l25 1 -22 18 c-23 19 -19 33 12 45 13 5 15 10 8 13 -20 7 -15 25
5 19 23 -8 50 9 28 17 -9 4 -16 2 -16 -2z"/>
<path d="M4166 5126 c21 -15 30 -14 19 3 -3 6 -14 11 -23 11 -13 0 -13 -2 4
-14z"/>
<path d="M4386 5118 c4 -7 14 -21 22 -30 7 -9 11 -21 7 -27 -3 -6 0 -9 8 -5 7
2 22 -7 33 -21 17 -23 53 -37 40 -16 -4 5 0 12 6 14 10 4 10 6 0 6 -20 1 -59
34 -56 46 2 6 -12 18 -32 28 -23 11 -33 13 -28 5z"/>
<path d="M4575 5060 c3 -5 14 -10 23 -10 15 0 15 2 2 10 -20 13 -33 13 -25 0z"/>
<path d="M4313 5043 c4 -3 2 -12 -4 -19 -7 -9 -4 -16 11 -27 12 -8 20 -21 19
-28 -6 -26 21 -60 41 -54 10 3 21 1 25 -5 5 -8 12 -7 23 2 10 8 13 8 9 1 -5
-7 -1 -10 10 -8 10 2 20 4 23 4 3 1 -8 10 -25 21 -41 27 -26 25 31 -4 41 -21
44 -25 24 -28 -34 -5 -34 -21 0 -37 24 -10 34 -10 45 -1 8 6 23 9 35 5 12 -4
20 -2 20 5 0 8 10 10 25 8 14 -3 28 -1 32 5 3 5 1 7 -5 3 -6 -3 -13 -2 -17 4
-3 5 0 10 7 10 9 0 9 3 -2 10 -11 7 -11 10 -2 10 7 0 10 5 7 10 -3 6 -1 10 4
10 6 0 11 5 11 10 0 6 -7 10 -15 10 -8 0 -15 5 -15 10 0 6 9 10 20 10 11 0 20
7 20 15 0 9 9 15 25 15 14 0 25 4 25 10 0 5 -7 7 -15 4 -8 -4 -26 1 -40 10
-15 10 -26 12 -30 6 -3 -6 -2 -10 3 -10 6 0 12 -7 16 -15 3 -9 0 -15 -10 -15
-9 0 -13 5 -9 13 4 6 0 4 -7 -5 -9 -10 -19 -14 -28 -8 -13 8 -133 5 -148 -3
-15 -10 -52 12 -46 28 3 8 2 15 -2 16 -5 0 -17 2 -26 4 -10 2 -18 -3 -18 -11
0 -8 8 -14 18 -15 13 0 12 -3 -6 -11 -17 -8 -26 -8 -34 0 -9 9 -9 12 1 12 9 0
8 4 -3 15 -8 8 -18 15 -22 15 -4 0 -4 -3 -1 -7z m267 -65 c0 -9 -13 -23 -30
-32 -16 -8 -30 -10 -30 -5 0 6 -4 7 -10 4 -10 -6 -60 22 -60 35 0 4 17 4 38
-1 50 -12 55 -11 49 5 -4 10 2 13 19 12 15 0 24 -7 24 -18z m-182 -21 c21 8
13 -16 -9 -28 -15 -8 -19 -8 -15 0 4 6 3 11 -2 11 -6 0 -12 7 -16 15 -4 12 -2
13 12 7 9 -5 23 -7 30 -5z m188 -30 c4 -4 0 -7 -9 -7 -9 0 -18 4 -21 9 -7 10
20 9 30 -2z"/>
<path d="M4686 4984 c-5 -12 -2 -15 10 -10 8 3 20 6 25 6 5 0 9 5 9 10 0 16
-37 11 -44 -6z"/>
<path d="M4660 4932 c0 -14 11 -21 26 -15 8 3 11 9 8 14 -7 11 -34 12 -34 1z"/>
<path d="M5410 4880 c0 -5 4 -10 9 -10 6 0 13 5 16 10 3 6 -1 10 -9 10 -9 0
-16 -4 -16 -10z"/>
<path d="M3196 4851 c-4 -5 -2 -12 3 -15 5 -4 12 -2 15 3 4 5 2 12 -3 15 -5 4
-12 2 -15 -3z"/>
<path d="M4444 4852 c4 -3 14 -7 22 -8 9 -1 13 0 10 4 -4 3 -14 7 -22 8 -9 1
-13 0 -10 -4z"/>
<path d="M4492 4832 c-18 -2 -30 -8 -26 -13 3 -5 10 -7 15 -3 5 3 15 1 22 -4
11 -9 57 1 57 12 0 7 -34 11 -68 8z"/>
<path d="M2957 4627 c-4 -10 -7 -26 -7 -35 1 -15 2 -15 11 1 6 10 9 25 7 35
-3 16 -4 15 -11 -1z"/>
<path d="M5788 4622 c-12 -14 -10 -14 12 -2 23 12 24 12 11 -3 -18 -23 2 -22
22 1 14 16 14 17 -8 18 -14 1 -30 -5 -37 -14z"/>
<path d="M6130 4610 c-13 -8 -13 -10 2 -10 9 0 20 5 23 10 8 13 -5 13 -25 0z"/>
<path d="M2686 4591 c-4 -5 1 -8 9 -7 21 3 31 16 12 16 -9 0 -18 -4 -21 -9z"/>
<path d="M6040 4500 c-9 -6 -10 -10 -3 -10 6 0 15 5 18 10 8 12 4 12 -15 0z"/>
<path d="M3915 4490 c-3 -6 1 -7 9 -4 18 7 21 14 7 14 -6 0 -13 -4 -16 -10z"/>
<path d="M3006 4390 c6 -36 11 -46 18 -39 2 2 -3 20 -10 39 l-14 35 6 -35z"/>
<path d="M4600 4340 c8 -5 22 -9 30 -9 10 0 8 3 -5 9 -27 12 -43 12 -25 0z"/>
<path d="M4263 4278 c4 -10 2 -18 -3 -18 -6 0 -10 -5 -10 -10 0 -18 42 -27 72
-16 31 12 37 25 11 22 -10 0 -18 5 -19 12 -3 23 -4 24 -17 13 -10 -8 -17 -7
-27 2 -10 10 -12 9 -7 -5z"/>
<path d="M4480 4275 c0 -10 -5 -15 -14 -12 -11 4 -36 -29 -36 -48 0 -10 37 -4
49 8 9 8 12 8 7 0 -12 -21 52 -27 82 -7 29 19 31 16 -28 38 -8 3 -25 13 -37
22 -21 15 -23 15 -23 -1z"/>
<path d="M4212 4271 c-11 -7 -10 -10 3 -15 20 -7 38 1 30 15 -7 11 -16 11 -33
0z"/>
<path d="M4360 4269 c0 -5 9 -9 19 -9 11 0 21 -5 23 -11 4 -12 38 -1 38 12 0
5 -6 9 -12 10 -7 0 -25 2 -40 4 -16 2 -28 -1 -28 -6z"/>
<path d="M5568 4273 c6 -2 18 -2 25 0 6 3 1 5 -13 5 -14 0 -19 -2 -12 -5z"/>
<path d="M5338 4243 c-10 -2 -18 -9 -18 -15 0 -5 7 -8 15 -4 8 3 20 0 27 -7
14 -13 79 -17 71 -4 -2 4 -13 7 -24 7 -11 0 -22 7 -25 15 -6 15 -14 17 -46 8z"/>
<path d="M4348 4224 c-35 -19 -35 -23 1 -22 15 1 34 -3 41 -7 10 -6 12 -4 7 8
-4 12 -2 14 11 10 15 -6 15 -5 3 10 -16 21 -28 21 -63 1z"/>
<path d="M4580 4204 c-11 -12 -11 -15 0 -12 8 2 14 -3 15 -10 0 -8 11 -19 24
-26 14 -8 19 -16 13 -20 -6 -3 -13 -2 -17 4 -3 5 -18 10 -32 10 -21 0 -24 2
-13 15 10 12 9 15 -8 15 -11 0 -35 2 -53 5 -29 4 -30 3 -9 -4 17 -6 20 -9 8
-10 -10 -1 -18 -7 -18 -13 0 -7 -5 -5 -11 5 -5 9 -18 17 -27 17 -15 -1 -15 -2
1 -14 33 -25 -7 -32 -50 -8 -37 21 -40 13 -3 -10 19 -12 54 -24 78 -28 38 -6
43 -5 39 10 -3 13 0 16 16 12 11 -3 22 -13 24 -24 3 -10 10 -18 15 -18 5 0 7
4 4 9 -6 9 65 8 81 -2 6 -4 13 -1 16 7 3 8 -1 17 -9 20 -9 3 -13 10 -10 15 3
5 -9 11 -26 15 -25 5 -29 9 -20 18 16 16 15 38 -2 38 -7 0 -19 -7 -26 -16z"/>
<path d="M4326 4115 c-9 -34 -1 -45 32 -46 24 0 25 -1 7 -8 -11 -5 -24 -6 -29
-3 -5 3 -6 0 -2 -6 8 -13 68 -17 79 -5 4 3 -1 12 -11 20 -10 9 -11 12 -2 7 16
-8 -13 31 -40 53 -22 18 -27 16 -34 -12z"/>
<path d="M5257 4128 c2 -5 -2 -8 -9 -8 -7 0 -26 -12 -43 -26 -29 -24 -29 -25
-5 -18 14 4 27 10 30 14 11 15 49 30 64 24 9 -3 22 0 29 8 11 11 7 13 -29 13
-23 0 -40 -3 -37 -7z"/>
<path d="M3858 4118 c5 -5 16 -8 23 -6 8 3 3 7 -10 11 -17 4 -21 3 -13 -5z"/>
<path d="M5420 4120 c0 -5 5 -10 10 -10 6 0 10 5 10 10 0 6 -4 10 -10 10 -5 0
-10 -4 -10 -10z"/>
<path d="M5578 4123 c7 -3 16 -2 19 1 4 3 -2 6 -13 5 -11 0 -14 -3 -6 -6z"/>
<path d="M5256 4089 c-24 -15 -59 -50 -53 -55 7 -8 87 41 87 54 0 15 -9 15
-34 1z"/>
<path d="M4288 4084 c-5 -4 -8 -13 -8 -21 0 -16 26 -17 36 -1 4 6 3 8 -4 4 -6
-3 -12 1 -14 10 -2 9 -6 12 -10 8z"/>
<path d="M3895 4070 c-3 -5 -1 -10 4 -10 6 0 11 5 11 10 0 6 -2 10 -4 10 -3 0
-8 -4 -11 -10z"/>
<path d="M3925 4060 c3 -5 11 -10 16 -10 6 0 7 5 4 10 -3 6 -11 10 -16 10 -6
0 -7 -4 -4 -10z"/>
<path d="M5851 3976 c11 -9 69 -24 64 -16 -3 4 0 10 7 12 7 3 -7 5 -31 6 -25
1 -42 0 -40 -2z"/>
<path d="M5382 3838 c-91 -9 -122 -24 -72 -32 19 -3 69 -8 110 -11 41 -2 82
-6 90 -8 82 -21 160 -31 140 -17 -12 8 -11 10 8 10 12 0 22 4 22 9 0 12 -43
28 -110 40 -82 16 -108 18 -188 9z"/>
<path d="M4380 3821 c0 -5 -10 -7 -22 -3 -13 3 -19 1 -15 -6 4 -5 15 -9 25 -7
9 2 20 4 25 4 11 1 8 21 -3 21 -5 0 -10 -4 -10 -9z"/>
<path d="M4897 3796 c-4 -10 -1 -13 9 -9 15 6 19 23 5 23 -5 0 -11 -7 -14 -14z"/>
<path d="M5917 3599 c18 -22 7 -29 -30 -18 -39 11 -37 11 -37 0 0 -5 10 -13
23 -17 12 -4 33 -18 47 -31 17 -17 26 -21 29 -12 2 7 -1 15 -7 17 -7 2 -12 8
-12 14 0 6 8 7 18 4 16 -6 16 -5 0 7 -10 8 -15 16 -13 19 3 3 -3 11 -12 19
-16 12 -17 12 -6 -2z"/>
<path d="M3986 3587 c3 -10 9 -15 12 -12 3 3 0 11 -7 18 -10 9 -11 8 -5 -6z"/>
<path d="M5296 3562 c11 -9 31 -25 45 -35 l24 -18 -24 7 c-18 5 -22 3 -16 -7
5 -8 -3 -5 -16 7 -29 25 -90 56 -97 49 -13 -13 24 -56 57 -66 20 -6 61 -25 91
-40 37 -19 72 -29 105 -30 28 -1 40 -4 28 -6 -33 -6 -29 -15 22 -52 25 -18 45
-29 45 -25 0 3 7 1 15 -6 19 -16 19 -6 -1 25 -9 13 -12 30 -8 36 4 8 3 9 -4 5
-7 -4 -12 -1 -12 6 0 7 -28 31 -63 53 -34 22 -63 43 -65 47 -7 15 -74 51 -110
59 -36 7 -36 7 -16 -9z"/>
<path d="M5736 3523 c21 -21 111 -63 132 -62 14 0 14 2 2 6 -8 4 -21 14 -28
24 -7 10 -36 25 -64 34 -64 19 -63 19 -42 -2z"/>
<path d="M4667 3506 c-4 -10 -1 -13 8 -9 8 3 12 9 9 14 -7 12 -11 11 -17 -5z"/>
<path d="M5208 3458 c2 -11 8 -15 11 -9 4 5 17 -6 31 -26 13 -19 26 -30 28
-24 5 14 -38 68 -59 74 -12 3 -15 -1 -11 -15z"/>
<path d="M5319 3436 c14 -14 29 -26 34 -26 13 0 -12 29 -37 42 -19 10 -18 8 3
-16z"/>
<path d="M5282 3428 c5 -15 28 -23 28 -10 0 5 -7 13 -16 16 -10 4 -14 1 -12
-6z"/>
<path d="M5227 3405 c-4 -8 -2 -17 4 -20 5 -4 7 -11 4 -16 -4 -5 1 -9 9 -9 12
0 13 5 5 30 -12 34 -15 36 -22 15z"/>
<path d="M5350 3393 c0 -3 7 -15 17 -25 9 -10 13 -21 10 -25 -4 -3 -16 6 -28
20 -25 33 -45 36 -27 5 7 -13 11 -26 10 -30 -1 -5 1 -7 6 -7 4 1 19 1 35 0 28
-1 39 -21 12 -21 -8 0 -15 -4 -15 -10 0 -5 -11 -10 -25 -10 -15 0 -25 -5 -24
-12 3 -27 -1 -39 -13 -32 -7 5 -8 3 -3 -5 5 -8 25 -11 61 -9 30 2 54 1 54 -4
0 -4 -7 -8 -15 -8 -34 0 6 -40 50 -51 25 -6 45 -16 45 -21 0 -10 -22 -8 -84 8
-43 10 -29 -9 32 -45 31 -19 68 -48 82 -64 33 -39 92 -69 111 -55 11 8 11 9
-3 4 -11 -3 -18 0 -18 7 0 14 -57 60 -78 63 -8 2 -17 5 -20 8 -18 18 52 -6
136 -46 35 -17 66 -28 69 -24 4 3 -8 12 -25 18 -18 7 -32 16 -32 21 0 9 15 7
55 -8 13 -5 16 -4 10 2 -5 5 -37 20 -70 33 -66 27 -146 70 -129 70 6 0 24 -6
40 -14 87 -42 128 -57 151 -54 24 3 24 4 -17 31 -23 15 -49 27 -58 27 -19 0
-82 36 -82 46 0 3 9 4 20 1 11 -3 23 -1 26 4 3 5 -1 9 -9 9 -12 0 -77 71 -77
84 0 17 -64 106 -76 106 -11 0 -8 -10 10 -37 28 -43 46 -100 27 -89 -6 4 -11
15 -11 25 0 19 -64 96 -79 96 -6 0 -16 6 -22 13 -14 13 -29 16 -29 5z"/>
<path d="M5286 3355 c4 -8 12 -15 20 -15 20 0 17 7 -6 20 -16 9 -18 8 -14 -5z"/>
<path d="M5060 3276 c0 -9 40 -13 46 -5 3 5 -6 9 -20 9 -14 0 -26 -2 -26 -4z"/>
<path d="M5590 3241 c0 -5 5 -13 10 -16 6 -3 10 -2 10 4 0 5 -4 13 -10 16 -5
3 -10 2 -10 -4z"/>
<path d="M5086 3231 c-4 -5 -2 -12 3 -15 5 -4 12 -2 15 3 4 5 2 12 -3 15 -5 4
-12 2 -15 -3z"/>
<path d="M5840 3214 c8 -10 29 -36 47 -57 18 -20 33 -44 33 -52 0 -8 4 -15 10
-15 6 0 6 9 0 25 -15 40 -38 69 -72 95 -27 19 -30 20 -18 4z"/>
<path d="M4577 3156 c-4 -10 -5 -21 -2 -24 9 -9 17 6 13 25 -3 17 -4 17 -11
-1z"/>
<path d="M4865 3140 c-6 -9 19 -20 46 -20 10 0 19 -5 19 -10 0 -6 -13 -8 -30
-5 -17 3 -30 1 -30 -5 0 -5 9 -10 20 -10 10 0 23 -7 28 -16 8 -14 10 -14 25 1
10 9 17 13 17 9 0 -5 5 -3 11 3 9 9 7 16 -5 29 -19 18 -94 36 -101 24z"/>
<path d="M4144 3131 c3 -5 -5 -19 -18 -32 -13 -13 -22 -29 -19 -36 6 -16 -34
-63 -53 -63 -6 0 -15 -7 -18 -16 -9 -24 -8 -27 13 -21 17 4 18 2 10 -20 -5
-13 -14 -33 -19 -43 -8 -16 -7 -18 4 -14 11 4 17 -3 21 -23 4 -15 9 -34 11
-42 3 -8 -1 -30 -7 -48 -19 -58 22 -69 44 -13 4 11 6 10 6 -4 1 -16 3 -16 21
5 18 23 19 23 20 4 0 -14 7 -20 25 -21 15 -1 25 3 25 12 0 8 -6 13 -12 11 -8
-1 -12 6 -10 18 1 11 3 48 4 82 2 58 3 61 16 38 17 -33 19 -32 14 5 -3 19 -10
30 -21 30 -13 0 -13 2 -2 9 8 5 11 17 7 32 -7 24 -7 24 10 4 16 -19 16 -19 10
14 -3 18 -6 40 -6 48 0 8 -4 12 -8 9 -9 -5 -37 10 -38 21 -2 16 -24 63 -29 63
-4 0 -4 -4 -1 -9z m34 -247 c3 -34 -6 -27 -18 15 -7 26 -6 30 3 22 7 -5 14
-22 15 -37z"/>
<path d="M5940 3123 c0 -11 7 -26 15 -33 20 -17 20 7 0 34 -15 19 -15 19 -15
-1z"/>
<path d="M4793 3112 c-8 -5 1 -8 22 -8 21 0 30 3 22 8 -6 4 -16 8 -22 8 -5 0
-16 -4 -22 -8z"/>
<path d="M5343 3103 c9 -2 17 -9 17 -14 0 -5 5 -9 11 -9 6 0 23 -8 37 -18 15
-10 41 -19 57 -21 17 -2 38 -7 48 -12 9 -6 17 -7 17 -5 0 5 -46 27 -148 72
-18 8 -38 13 -45 13 -7 -1 -4 -3 6 -6z"/>
<path d="M5768 3077 c12 -13 20 -26 17 -29 -4 -3 8 -16 25 -28 24 -17 28 -25
20 -35 -8 -10 -4 -21 18 -46 31 -35 61 -34 42 2 -6 11 -8 24 -5 29 4 6 -9 25
-27 43 -74 70 -140 118 -90 64z"/>
<path d="M6127 2902 c5 -20 70 -68 80 -59 8 9 -26 46 -58 63 -24 12 -27 12
-22 -4z"/>
<path d="M5867 2868 c9 -27 23 -48 31 -48 19 0 6 39 -24 70 l-25 25 18 -47z"/>
<path d="M4041 2843 c-10 -26 -10 -27 4 -9 8 11 15 23 15 28 0 15 -7 8 -19
-19z"/>
<path d="M4710 2860 c0 -5 4 -10 9 -10 6 0 13 5 16 10 3 6 -1 10 -9 10 -9 0
-16 -4 -16 -10z"/>
<path d="M4200 2828 c0 -27 39 -81 41 -58 3 30 -3 53 -16 67 -19 19 -25 16
-25 -9z"/>
<path d="M4545 2840 c-3 -5 -1 -10 4 -10 6 0 11 5 11 10 0 6 -2 10 -4 10 -3 0
-8 -4 -11 -10z"/>
<path d="M3135 2830 c3 -5 8 -10 11 -10 2 0 4 5 4 10 0 6 -5 10 -11 10 -5 0
-7 -4 -4 -10z"/>
<path d="M3289 2775 c-17 -50 -16 -65 2 -65 5 0 8 3 7 8 0 4 2 14 6 24 4 9 6
31 4 50 -3 33 -3 33 -19 -17z"/>
<path d="M3599 2803 c-13 -16 -12 -17 4 -4 16 13 21 21 13 21 -2 0 -10 -8 -17
-17z"/>
<path d="M5145 2780 c-3 -6 4 -9 19 -8 13 1 22 6 20 10 -7 11 -32 10 -39 -2z"/>
<path d="M5275 2760 c-8 -13 -1 -24 14 -19 6 3 7 10 2 18 -6 10 -10 10 -16 1z"/>
<path d="M5240 2749 c0 -5 5 -7 10 -4 6 3 10 8 10 11 0 2 -4 4 -10 4 -5 0 -10
-5 -10 -11z"/>
<path d="M4187 2724 c-7 -8 3 -34 13 -34 9 0 8 26 -1 35 -3 3 -8 2 -12 -1z"/>
<path d="M5005 2720 c-3 -5 1 -10 10 -10 9 0 13 5 10 10 -3 6 -8 10 -10 10 -2
0 -7 -4 -10 -10z"/>
<path d="M5135 2722 c-3 -3 5 -10 18 -16 15 -8 23 -22 25 -47 3 -31 10 -40 65
-76 68 -44 96 -57 114 -54 6 1 14 -3 18 -9 3 -5 14 -10 23 -10 14 1 13 4 -7
20 -13 11 -19 20 -15 21 5 0 -9 9 -31 20 -22 10 -34 19 -27 19 7 0 31 -9 52
-19 22 -11 40 -15 40 -11 0 5 -5 12 -10 15 -6 4 -8 11 -5 16 4 5 -5 14 -19 21
-14 6 -26 15 -26 20 0 4 -15 18 -32 29 -33 21 -33 21 -5 16 34 -5 34 -1 1 29
-25 24 -51 33 -39 14 3 -5 2 -10 -4 -10 -5 0 -12 6 -14 13 -3 7 -6 4 -6 -6 -1
-12 -5 -15 -13 -11 -16 10 -96 22 -103 16z m255 -128 c0 -2 -7 -4 -15 -4 -8 0
-15 4 -15 10 0 5 7 7 15 4 8 -4 15 -8 15 -10z"/>
<path d="M6785 2720 c-3 -5 -1 -10 4 -10 6 0 11 -7 11 -15 0 -8 -6 -15 -12
-15 -10 0 -10 -2 0 -8 7 -5 23 -7 35 -6 12 1 26 3 30 3 13 1 -1 18 -33 41 -17
12 -31 16 -35 10z"/>
<path d="M4600 2700 c0 -6 4 -10 10 -10 5 0 7 -7 4 -15 -4 -8 -1 -15 5 -15 17
0 13 37 -4 44 -8 3 -15 1 -15 -4z"/>
<path d="M6580 2705 c-1 -5 -4 -23 -6 -39 -6 -35 12 -82 33 -90 12 -5 13 -2 8
11 -5 10 -14 43 -21 73 -7 30 -13 51 -14 45z"/>
<path d="M6885 2701 c-3 -6 -1 -11 4 -11 6 0 11 -6 11 -14 0 -8 12 -28 26 -43
l25 -28 -27 50 c-15 28 -29 51 -30 53 -1 2 -5 -1 -9 -7z"/>
<path d="M4560 2659 c0 -14 5 -19 17 -17 26 5 29 38 4 38 -15 0 -21 -6 -21
-21z"/>
<path d="M5696 2672 c-10 -18 16 -51 49 -62 52 -17 65 0 23 32 -38 29 -66 40
-72 30z"/>
<path d="M3110 2660 c0 -5 5 -10 10 -10 6 0 10 5 10 10 0 6 -4 10 -10 10 -5 0
-10 -4 -10 -10z"/>
<path d="M4258 2663 c7 -3 16 -2 19 1 4 3 -2 6 -13 5 -11 0 -14 -3 -6 -6z"/>
<path d="M4670 2659 c0 -5 5 -7 10 -4 6 3 10 8 10 11 0 2 -4 4 -10 4 -5 0 -10
-5 -10 -11z"/>
<path d="M4906 2658 c4 -6 7 -27 7 -47 -1 -32 0 -33 7 -11 13 40 11 57 -6 64
-10 4 -13 2 -8 -6z"/>
<path d="M3185 2638 l-20 -21 23 12 c12 6 22 16 22 21 0 13 -2 12 -25 -12z"/>
<path d="M6867 2634 c3 -7 0 -14 -6 -14 -8 0 -8 -4 1 -14 7 -7 19 -11 27 -8 9
3 12 1 7 -6 -4 -7 -1 -12 8 -12 13 0 13 4 0 29 -15 30 -48 52 -37 25z"/>
<path d="M6976 2623 c10 -42 21 -47 16 -8 -2 19 -8 35 -13 35 -5 0 -6 -12 -3
-27z"/>
<path d="M5400 2636 c0 -2 8 -10 18 -17 15 -13 16 -12 3 4 -13 16 -21 21 -21
13z"/>
<path d="M6840 2590 c0 -5 5 -10 11 -10 5 0 7 5 4 10 -3 6 -8 10 -11 10 -2 0
-4 -4 -4 -10z"/>
<path d="M3166 2575 c-11 -8 -17 -17 -14 -20 2 -3 13 4 23 15 21 23 18 25 -9
5z"/>
<path d="M6275 2545 c4 -22 13 -47 20 -55 30 -33 33 -62 11 -100 -19 -32 -21
-33 -24 -12 -3 20 -5 21 -24 7 -19 -13 -23 -12 -38 5 -10 11 -33 51 -51 88
-19 37 -35 69 -36 71 -6 9 -32 -35 -37 -63 -4 -20 2 -47 19 -84 14 -30 25 -61
25 -69 0 -8 10 -23 22 -33 21 -16 23 -16 35 -1 11 14 12 13 13 -7 0 -28 55
-83 75 -76 13 6 31 -30 27 -53 -2 -8 4 -10 15 -6 16 6 17 5 3 -13 -14 -17 -14
-18 1 -6 17 13 45 7 67 -15 8 -8 20 -9 34 -4 27 10 62 -7 148 -69 92 -67 99
-69 64 -25 -61 77 -120 204 -138 295 -2 14 -4 -15 -2 -65 2 -62 8 -100 20
-123 l17 -34 -37 26 c-20 13 -47 42 -60 63 -30 50 -74 143 -77 163 -2 8 -9 26
-17 40 -7 14 -15 47 -16 75 -1 27 -8 51 -14 53 -6 2 -21 18 -32 36 l-20 31 7
-40z m-88 -181 c-9 -9 -28 6 -21 18 4 6 10 6 17 -1 6 -6 8 -13 4 -17z"/>
<path d="M7003 2549 c-1 -10 2 -19 8 -19 11 0 12 27 1 34 -4 2 -9 -4 -9 -15z"/>
<path d="M4911 2544 c0 -11 3 -14 6 -6 3 7 2 16 -1 19 -3 4 -6 -2 -5 -13z"/>
<path d="M4117 2538 c-8 -5 -5 -8 8 -8 11 0 27 5 35 10 12 7 10 9 -8 7 -13 -1
-28 -5 -35 -9z"/>
<path d="M5271 2532 c15 -9 52 -35 83 -56 31 -21 59 -36 62 -33 3 3 -7 13 -23
23 -15 9 -51 32 -79 50 -28 19 -55 34 -60 34 -5 0 3 -8 17 -18z"/>
<path d="M6888 2543 c7 -3 16 -2 19 1 4 3 -2 6 -13 5 -11 0 -14 -3 -6 -6z"/>
<path d="M5200 2501 c36 -22 93 -65 128 -96 34 -31 59 -48 55 -38 -6 16 -5 17
13 3 10 -8 22 -19 25 -23 3 -5 13 -9 21 -11 8 -1 27 -9 41 -19 15 -9 38 -24
52 -33 39 -25 29 -9 -16 27 -23 18 -50 33 -60 34 -10 1 -30 13 -45 28 -15 15
-30 27 -35 27 -5 0 -6 7 -3 15 5 11 -23 29 -107 70 -134 64 -160 70 -69 16z"/>
<path d="M6920 2529 c0 -5 5 -7 10 -4 6 3 10 8 10 11 0 2 -4 4 -10 4 -5 0 -10
-5 -10 -11z"/>
<path d="M4065 2500 c3 -5 8 -10 11 -10 2 0 4 5 4 10 0 6 -5 10 -11 10 -5 0
-7 -4 -4 -10z"/>
<path d="M5719 2486 c9 -10 9 -16 1 -21 -8 -5 -8 -11 1 -21 9 -11 8 -14 -6
-14 -12 0 -16 6 -12 20 6 23 -25 45 -49 36 -21 -8 -17 -21 11 -34 14 -6 25
-17 25 -23 0 -6 -14 -2 -32 9 -33 20 -64 19 -51 -1 4 -6 0 -8 -10 -4 -24 9
-21 -3 10 -35 25 -26 21 -42 -5 -16 -9 9 -12 8 -12 -7 0 -13 22 -34 66 -62 60
-39 66 -41 71 -24 3 11 11 22 19 25 17 6 17 1 4 -25 -15 -28 -3 -23 32 11 28
29 25 35 -12 30 -11 -1 -12 1 -3 10 8 9 16 9 29 2 24 -13 65 8 94 48 l21 30
-44 0 c-48 0 -107 17 -107 31 0 9 28 1 48 -14 9 -7 11 -6 6 7 -3 9 -10 16 -16
16 -5 0 -7 4 -4 9 3 5 -3 11 -14 14 -11 3 -18 1 -14 -4 9 -15 -13 -10 -26 6
-7 8 -17 15 -22 15 -6 0 -6 -6 1 -14z"/>
<path d="M6520 2485 l-25 -14 31 -1 c19 0 34 6 38 15 7 19 -11 19 -44 0z"/>
<path d="M4126 2475 c-11 -8 -15 -15 -9 -15 6 0 16 7 23 15 16 19 11 19 -14 0z"/>
<path d="M5430 2486 c0 -2 8 -10 18 -17 15 -13 16 -12 3 4 -13 16 -21 21 -21
13z"/>
<path d="M3995 2440 c-10 -11 -16 -22 -14 -24 2 -2 12 7 22 20 22 29 17 32 -8
4z"/>
<path d="M4850 2444 c0 -5 7 -20 16 -32 8 -12 13 -26 10 -31 -8 -12 4 -41 16
-41 5 0 6 6 1 12 -4 7 -6 24 -5 38 2 16 -5 33 -17 45 -12 10 -21 14 -21 9z"/>
<path d="M4042 2433 c-12 -2 -27 -13 -33 -24 -7 -14 -16 -18 -30 -14 -23 8
-25 -1 -4 -21 8 -9 15 -13 15 -9 0 3 9 1 20 -5 30 -16 54 -4 68 33 18 51 19
50 -36 40z"/>
<path d="M4140 2421 c0 -18 17 -20 36 -6 18 14 18 14 -8 15 -16 0 -28 -4 -28
-9z"/>
<path d="M6840 2419 c0 -5 5 -7 10 -4 6 3 10 8 10 11 0 2 -4 4 -10 4 -5 0 -10
-5 -10 -11z"/>
<path d="M6891 2413 c8 -10 18 -21 22 -24 4 -3 0 -12 -9 -20 -12 -9 -15 -10
-10 -1 4 6 3 12 -3 12 -5 0 -12 8 -14 18 -3 9 -5 1 -6 -20 -1 -31 2 -35 19
-31 15 4 23 -2 34 -28 l14 -33 17 35 c10 19 27 45 39 58 l21 25 -29 -19 c-21
-12 -31 -14 -34 -6 -2 6 -8 9 -13 5 -5 -3 -9 2 -9 10 0 9 -5 16 -11 16 -5 0
-7 5 -4 10 3 6 -4 10 -16 10 -19 0 -20 -2 -8 -17z"/>
<path d="M4096 2398 c-19 -27 0 -41 19 -15 7 9 16 13 20 9 4 -4 6 -1 3 7 -7
24 -25 23 -42 -1z"/>
<path d="M6516 2405 c-9 -26 -7 -32 5 -12 6 10 9 21 6 23 -2 3 -7 -2 -11 -11z"/>
<path d="M4827 2390 c-12 -55 -17 -93 -11 -87 4 3 14 2 23 -3 22 -11 26 24 7
77 -13 36 -14 36 -19 13z"/>
<path d="M4920 2358 c0 -21 5 -38 10 -38 13 0 13 40 0 60 -7 11 -10 5 -10 -22z"/>
<path d="M3135 2369 c-4 -6 -5 -12 -2 -15 2 -3 7 2 10 11 7 17 1 20 -8 4z"/>
<path d="M3470 2349 c-9 -15 -9 -28 -1 -45 8 -19 7 -22 -4 -17 -22 8 -18 -5 5
-17 29 -15 64 -3 84 31 17 29 17 29 -6 29 -26 0 -50 13 -48 26 3 19 -19 14
-30 -7z"/>
<path d="M3540 2360 c-24 -15 -7 -19 20 -5 15 8 19 14 10 14 -8 1 -22 -3 -30
-9z"/>
<path d="M4970 2354 c0 -10 5 -26 10 -34 8 -11 9 -7 4 15 -8 37 -14 45 -14 19z"/>
<path d="M4615 2319 c-4 -17 -5 -33 -2 -36 11 -10 27 9 27 32 0 36 -17 39 -25
4z"/>
<path d="M4070 2328 c0 -11 12 -10 30 2 12 7 10 9 -8 7 -12 0 -22 -5 -22 -9z"/>
<path d="M5581 2333 c2 -4 31 -34 64 -65 58 -55 61 -56 60 -30 0 17 -8 30 -22
38 -13 6 -31 18 -40 26 -24 20 -66 42 -62 31z"/>
<path d="M5847 2317 c-8 -22 7 -63 27 -70 17 -7 22 4 9 17 -5 4 -13 21 -19 39
-8 24 -12 27 -17 14z"/>
<path d="M4122 2307 c-36 -10 -41 -14 -30 -26 7 -8 8 -11 2 -8 -7 4 -14 -2
-17 -15 -5 -18 -1 -16 27 11 17 17 40 31 49 31 9 0 17 5 17 10 0 6 -1 10 -2 9
-2 -1 -22 -6 -46 -12z"/>
<path d="M3280 2300 c0 -5 5 -10 11 -10 5 0 7 5 4 10 -3 6 -8 10 -11 10 -2 0
-4 -4 -4 -10z"/>
<path d="M3562 2293 c-9 -17 -9 -22 4 -27 8 -3 22 1 30 9 14 13 14 15 1 15 -9
0 -17 6 -19 12 -3 8 -9 5 -16 -9z"/>
<path d="M4582 2285 c0 -16 2 -22 5 -12 2 9 2 23 0 30 -3 6 -5 -1 -5 -18z"/>
<path d="M6648 2304 c-7 -11 30 -206 41 -214 4 -3 14 -30 24 -60 9 -31 25 -65
35 -75 10 -11 23 -40 29 -65 l11 -45 2 40 c1 22 1 47 0 54 -1 13 1 13 14 2 25
-21 19 -2 -13 38 -16 20 -40 59 -53 86 -12 28 -25 52 -28 55 -8 7 -49 141 -52
170 -2 14 -6 20 -10 14z"/>
<path d="M3216 2291 c-3 -5 12 -13 34 -19 41 -10 49 -5 28 16 -14 14 -54 16
-62 3z"/>
<path d="M4934 2242 c1 -33 4 -47 11 -42 7 6 12 -1 13 -18 10 -89 24 -146 33
-131 5 9 10 4 14 -17 4 -16 9 -36 13 -44 10 -28 11 -61 1 -54 -6 3 -8 12 -5
20 3 8 0 14 -6 14 -6 0 -8 3 -5 7 4 3 -2 12 -12 20 -11 7 -21 23 -23 35 -2 12
-9 23 -17 26 -10 3 -12 -4 -7 -29 l6 -34 -13 32 c-6 17 -25 44 -41 60 l-29 28
8 -34 c4 -20 3 -31 -2 -28 -5 3 -8 -7 -5 -23 4 -25 1 -28 -17 -23 -12 3 -21 8
-21 12 0 3 -20 28 -45 55 -43 49 -44 50 -65 31 -11 -10 -21 -30 -21 -44 -1
-17 -3 -20 -6 -9 -4 15 -8 14 -29 -9 -13 -14 -24 -30 -24 -35 0 -18 21 -48 34
-48 7 0 18 -11 24 -24 10 -22 8 -25 -19 -35 -19 -7 -28 -15 -23 -22 4 -7 2
-10 -6 -7 -20 6 -24 28 -6 28 19 0 20 5 6 30 -14 27 -36 15 -45 -23 -20 -88
-22 -113 -14 -134 5 -13 11 -38 14 -56 6 -30 5 -31 -9 -12 -9 11 -16 31 -16
45 0 14 -8 36 -16 50 -8 14 -13 17 -10 8 3 -9 -2 -22 -10 -28 -18 -16 -18 -55
1 -84 14 -21 14 -24 1 -29 -9 -4 -18 -2 -21 3 -3 4 0 10 7 12 8 3 6 13 -9 31
l-21 27 -4 -49 c-1 -27 1 -49 6 -48 5 1 11 -4 13 -11 3 -7 -1 -10 -11 -6 -10
4 -17 -2 -22 -20 -3 -13 -4 -28 -1 -33 2 -4 1 -17 -4 -28 -6 -16 -8 -14 -8 13
l-1 32 -20 -20 c-17 -17 -23 -18 -34 -8 -12 11 -12 16 2 31 29 32 4 28 -28 -5
-30 -31 -31 -32 -25 -8 l6 25 -20 -24 c-18 -19 -22 -21 -27 -7 -6 16 -24 13
-24 -5 0 -6 5 -7 10 -4 6 3 10 2 10 -3 0 -6 -25 -26 -55 -47 -30 -20 -55 -44
-56 -53 0 -10 -3 -12 -6 -4 -9 22 -31 13 -64 -29 l-32 -40 39 17 c21 9 49 16
61 15 12 0 24 3 28 8 3 5 15 7 27 3 13 -3 19 -1 15 5 -4 6 -1 11 6 10 34 -1
46 5 50 26 l4 22 2 -22 c1 -25 11 -29 27 -13 7 7 11 6 12 -5 1 -8 3 -22 4 -30
1 -11 5 -12 15 -4 9 9 14 7 19 -5 7 -19 31 -21 36 -4 4 10 10 10 31 1 20 -9
27 -9 31 0 2 7 5 3 5 -8 1 -21 41 -34 41 -13 0 7 5 6 14 -1 12 -10 14 -8 9 11
-4 22 -4 22 11 4 9 -11 16 -25 16 -30 0 -6 5 -4 11 4 8 11 12 12 16 3 2 -7 12
-13 22 -13 10 0 24 -15 34 -35 9 -19 20 -35 24 -35 21 1 35 20 30 39 -3 12 -1
24 4 27 5 3 9 0 9 -7 0 -7 2 -10 5 -7 3 3 1 18 -5 34 l-11 28 22 -19 c22 -20
22 -20 10 2 -15 29 -14 36 4 29 18 -6 19 -2 4 26 -8 15 -8 19 0 14 6 -4 11 -2
11 4 0 6 5 8 10 5 6 -4 8 -16 4 -27 -5 -17 -3 -18 15 -9 16 9 21 9 22 -1 0 -7
4 -5 7 5 6 15 13 10 41 -29 21 -31 35 -43 40 -35 5 8 13 6 26 -9 10 -11 21
-17 26 -14 5 3 20 -3 33 -12 14 -9 43 -20 63 -25 47 -12 54 -14 75 -23 9 -4
22 -5 29 -1 8 5 9 1 4 -16 -7 -22 -6 -23 9 -10 16 13 17 12 11 -15 -5 -29 -5
-29 6 -4 7 15 13 20 16 12 7 -18 -17 -153 -27 -147 -4 2 -5 17 -2 32 2 16 2
26 -1 23 -3 -3 -7 -18 -10 -35 -3 -16 -8 -49 -12 -73 -6 -35 -5 -41 7 -37 21
8 68 -12 68 -29 0 -8 24 -36 54 -61 37 -33 57 -59 66 -88 8 -23 18 -47 23 -54
5 -7 6 -29 3 -50 -3 -21 -8 -96 -12 -166 l-5 -128 31 16 c29 15 31 20 26 53
-3 20 -8 69 -11 107 -3 39 -8 89 -12 113 -6 48 9 57 26 14 22 -52 109 -174
114 -160 4 9 8 10 14 2 12 -17 52 -10 75 13 20 21 20 21 1 42 -11 12 -26 41
-33 64 -6 23 -15 47 -19 52 -14 19 -33 105 -28 125 3 11 1 18 -4 14 -5 -3 -9
5 -9 18 -1 13 -7 34 -15 48 -8 14 -14 37 -15 53 0 15 -4 27 -10 27 -5 0 -10
14 -10 30 0 17 3 30 8 29 15 -1 82 -91 82 -110 0 -11 4 -18 8 -15 13 8 57 -44
72 -84 25 -63 82 -160 103 -175 18 -13 23 -13 38 1 20 18 21 13 -58 168 -58
115 -113 306 -115 399 0 27 -4 35 -11 28 -7 -7 -6 -42 2 -113 7 -57 14 -128
17 -158 2 -30 7 -62 10 -72 9 -29 -10 -21 -37 15 -44 59 -69 98 -69 107 0 6
-4 10 -9 10 -16 0 -30 56 -18 70 9 10 8 12 -6 7 -14 -5 -21 1 -33 31 -8 20
-19 46 -24 57 -5 11 -14 40 -20 64 -10 38 -9 47 4 57 9 6 16 17 16 25 -1 17
-30 58 -30 42 0 -7 5 -15 10 -18 6 -3 10 -12 10 -20 0 -16 -25 -14 -42 3 -7 7
-16 12 -22 12 -6 0 -5 -5 2 -12 20 -20 13 -28 -15 -17 -16 6 -29 10 -30 10
-12 -3 -12 2 -3 19 9 18 8 20 -15 20 -14 0 -28 7 -31 15 -4 8 -11 12 -16 9 -6
-4 -8 -1 -6 7 3 8 1 27 -3 42 -7 24 -6 27 6 17 12 -10 15 -10 15 0 0 10 4 9
16 -1 15 -12 14 -9 0 26 -9 22 -26 54 -37 70 -15 22 -12 21 13 -8 41 -46 50
-47 36 -4 -5 17 -10 44 -9 59 1 15 -3 29 -9 33 -5 3 -10 11 -10 16 0 6 5 7 12
3 8 -5 9 -2 4 12 -4 10 -9 30 -11 43 -1 13 -7 26 -12 30 -6 3 -21 30 -33 59
-27 62 -37 64 -15 2 27 -77 10 -82 -20 -5 l-15 40 7 -40 6 -40 -22 25 c-13 14
-20 19 -16 13 11 -22 -13 -14 -29 8 -8 12 -25 47 -37 78 -12 31 -28 63 -36 72
-23 27 -16 45 10 23 12 -10 16 -12 10 -4 -21 23 -15 34 8 14 22 -19 22 -19 14
5 -4 13 -8 31 -10 40 -1 9 -8 15 -14 14 -6 -2 -11 4 -11 13 0 9 -5 12 -12 8
-7 -4 -10 -3 -5 1 4 5 -1 17 -10 28 -13 15 -14 18 -3 12 8 -4 -3 8 -25 26 -22
19 -45 34 -53 34 -7 0 -17 7 -22 15 -5 8 -10 11 -10 5 0 -5 -4 -4 -9 3 -5 8
-8 -6 -7 -36z m78 -103 c5 -4 10 -23 11 -44 1 -21 3 -33 5 -26 6 19 22 12 22
-10 0 -11 -4 -17 -10 -14 -5 3 -10 1 -10 -6 0 -32 -48 83 -52 126 l-5 50 14
-35 c8 -19 20 -38 25 -41z m-229 -99 c-3 -11 1 -28 8 -38 7 -9 1 -6 -14 7 -25
22 -25 25 -9 37 9 7 18 14 19 14 0 0 -1 -9 -4 -20z m273 -50 c-1 -37 -1 -38
-13 -17 -16 28 -18 60 -3 37 8 -13 10 -12 10 3 0 9 2 17 4 17 2 0 3 -18 2 -40z
m-379 24 c-3 -3 -12 -4 -19 -1 -8 3 -5 6 6 6 11 1 17 -2 13 -5z m0 -162 c0
-10 -7 -19 -14 -19 -16 0 -17 9 -1 25 16 16 17 15 15 -6z m83 -21 c0 -17 -18
-21 -24 -6 -3 9 0 15 9 15 8 0 15 -4 15 -9z m-81 -51 c11 -24 11 -24 -3 -6 -9
11 -16 24 -16 30 0 12 5 7 19 -24z m-31 -81 c-3 -8 -7 -3 -11 10 -4 17 -3 21
5 13 5 -5 8 -16 6 -23z m412 -59 c6 -11 8 -20 6 -20 -3 0 -10 9 -16 20 -6 11
-8 20 -6 20 3 0 10 -9 16 -20z m-467 -25 c-3 -9 -8 -14 -10 -11 -3 3 -2 9 2
15 9 16 15 13 8 -4z m-86 -67 c-3 -8 -6 -5 -6 6 -1 11 2 17 5 13 3 -3 4 -12 1
-19z m-111 -10 c4 -7 3 -8 -4 -4 -8 5 -12 -1 -13 -16 0 -13 -3 -17 -6 -10 -5
13 2 42 11 42 3 0 8 -5 12 -12z m1005 -393 c22 -60 31 -146 16 -161 -9 -9 -56
44 -57 64 0 7 -9 31 -21 54 -28 54 -52 136 -45 154 3 8 20 23 38 34 l33 20 7
-53 c3 -28 16 -79 29 -112z"/>
<path d="M4484 2260 c0 -13 7 -20 18 -20 16 0 17 3 8 20 -6 11 -14 20 -18 20
-4 0 -8 -9 -8 -20z"/>
<path d="M5492 2245 c21 -19 43 -35 50 -35 15 1 -62 70 -77 70 -5 0 7 -16 27
-35z"/>
<path d="M5590 2273 c0 -5 6 -15 13 -22 10 -12 8 -13 -8 -7 -20 6 -20 6 0 -9
11 -9 21 -12 23 -6 2 5 12 7 23 4 20 -5 51 -63 46 -86 -1 -7 4 -11 12 -9 9 2
12 -4 8 -18 -3 -11 -1 -17 4 -14 21 12 -4 79 -44 121 -22 24 -43 40 -45 38 -3
-3 -11 0 -19 6 -7 6 -13 7 -13 2z"/>
<path d="M3446 2245 c-4 -10 1 -15 16 -15 17 0 18 2 8 15 -7 8 -14 15 -15 15
-2 0 -5 -7 -9 -15z"/>
<path d="M4110 2250 c-8 -5 -10 -10 -5 -10 6 0 17 5 25 10 8 5 11 10 5 10 -5
0 -17 -5 -25 -10z"/>
<path d="M3305 2219 c-4 -6 -14 -8 -22 -5 -11 4 -13 2 -10 -9 4 -8 1 -17 -5
-21 -7 -4 -8 -3 -4 4 4 7 2 12 -3 12 -16 0 -13 -16 5 -31 14 -11 19 -10 37 11
12 16 18 18 14 8 -5 -15 -4 -16 13 -5 25 15 25 24 1 37 -14 7 -22 7 -26 -1z"/>
<path d="M3170 2210 c-8 -5 -11 -12 -7 -16 4 -4 13 -2 19 4 15 15 7 24 -12 12z"/>
<path d="M3425 2210 c-3 -5 -15 -10 -25 -10 -10 0 -22 -4 -25 -10 -4 -6 11
-10 37 -10 28 0 38 3 29 9 -7 5 -10 14 -7 20 4 6 5 11 2 11 -3 0 -8 -4 -11
-10z"/>
<path d="M4534 2175 c-6 -19 -7 -36 -2 -37 5 -2 6 -11 3 -20 -4 -10 -13 -14
-22 -11 -11 4 -14 1 -11 -13 6 -31 26 -22 48 21 23 46 24 55 8 78 -12 16 -14
14 -24 -18z"/>
<path d="M5770 2200 c-13 -8 -12 -10 3 -10 9 0 17 5 17 10 0 12 -1 12 -20 0z"/>
<path d="M4517 2193 c-4 -3 -7 -11 -7 -17 0 -6 5 -5 12 2 6 6 9 14 7 17 -3 3
-9 2 -12 -2z"/>
<path d="M3140 2172 c6 -13 14 -21 18 -18 3 4 -2 14 -12 24 -18 16 -18 16 -6
-6z"/>
<path d="M3190 2172 c0 -18 29 -52 43 -52 4 0 7 8 7 18 0 13 -2 14 -9 3 -7
-11 -10 -11 -17 0 -4 8 -3 14 5 17 9 3 9 7 0 18 -16 19 -29 17 -29 -4z"/>
<path d="M4045 2172 c-8 -20 -7 -22 15 -22 10 0 24 8 29 18 7 14 5 17 -15 17
-13 0 -26 -6 -29 -13z"/>
<path d="M6262 2160 c0 -19 2 -27 5 -17 2 9 2 25 0 35 -3 9 -5 1 -5 -18z"/>
<path d="M4316 2155 c-3 -8 -1 -15 4 -15 13 0 22 18 11 24 -5 3 -11 -1 -15 -9z"/>
<path d="M4641 2143 c-1 -23 4 -33 14 -33 8 0 15 7 15 15 0 8 -4 15 -9 15 -5
0 -12 8 -14 18 -3 9 -5 2 -6 -15z"/>
<path d="M4891 2144 c0 -11 3 -14 6 -6 3 7 2 16 -1 19 -3 4 -6 -2 -5 -13z"/>
<path d="M3025 2130 c-3 -5 -1 -18 4 -27 9 -16 10 -14 11 10 0 28 -5 34 -15
17z"/>
<path d="M3102 2128 c2 -6 15 -18 28 -27 l24 -16 -18 28 c-18 27 -41 38 -34
15z"/>
<path d="M4940 2107 c0 -20 4 -37 10 -37 5 0 7 14 3 33 -8 45 -13 47 -13 4z"/>
<path d="M5782 2120 c0 -14 2 -19 5 -12 2 6 2 18 0 25 -3 6 -5 1 -5 -13z"/>
<path d="M5894 2124 c8 -20 -24 -156 -38 -166 -7 -5 -7 -8 1 -8 15 0 38 -50
53 -117 7 -29 14 -53 16 -53 12 0 24 54 14 64 -5 5 -10 24 -10 42 0 18 -5 34
-12 36 -9 3 -12 36 -11 111 0 64 -3 107 -9 107 -6 0 -7 -7 -4 -16z"/>
<path d="M4475 2119 c-4 -6 -5 -12 -2 -15 2 -3 7 2 10 11 7 17 1 20 -8 4z"/>
<path d="M4900 2100 c0 -5 5 -10 11 -10 5 0 7 5 4 10 -3 6 -8 10 -11 10 -2 0
-4 -4 -4 -10z"/>
<path d="M6325 2080 c1 -17 8 -39 17 -49 12 -14 13 -22 5 -30 -8 -8 -7 -11 2
-11 7 0 11 -6 8 -15 -4 -8 -2 -17 2 -20 5 -2 11 4 14 15 3 11 10 20 15 20 13
0 10 -183 -3 -192 -6 -5 -5 -8 3 -8 7 0 12 -13 12 -33 0 -46 35 -221 60 -297
16 -50 18 -71 10 -95 l-10 -30 31 35 c32 37 84 139 74 148 -3 3 -5 1 -5 -4 0
-6 -7 -19 -15 -30 -15 -18 -16 -17 -10 14 4 19 3 32 -4 32 -5 0 -16 33 -24 73
-38 190 -50 254 -49 272 1 11 -3 22 -9 25 -5 4 -11 20 -12 37 -1 17 -4 29 -6
27 -7 -6 -31 55 -31 77 0 11 -4 19 -10 19 -5 0 -7 -13 -3 -30 3 -20 1 -30 -6
-30 -7 0 -9 5 -5 12 4 6 -1 17 -10 24 -11 8 -13 14 -7 19 6 3 11 11 11 16 0 6
-4 8 -9 5 -5 -3 -11 3 -14 14 -8 31 -24 24 -22 -10z"/>
<path d="M4050 2068 c-12 -22 -12 -22 6 -6 10 10 15 20 12 24 -4 3 -12 -5 -18
-18z"/>
<path d="M4450 2074 c0 -8 5 -12 10 -9 6 3 10 10 10 16 0 5 -4 9 -10 9 -5 0
-10 -7 -10 -16z"/>
<path d="M4630 2079 c0 -5 5 -7 10 -4 6 3 10 8 10 11 0 2 -4 4 -10 4 -5 0 -10
-5 -10 -11z"/>
<path d="M5576 2067 c3 -10 9 -15 12 -12 3 3 0 11 -7 18 -10 9 -11 8 -5 -6z"/>
<path d="M4390 2059 c0 -5 5 -7 10 -4 6 3 10 8 10 11 0 2 -4 4 -10 4 -5 0 -10
-5 -10 -11z"/>
<path d="M4420 2053 c0 -5 5 -15 10 -23 8 -12 10 -11 10 8 0 12 -4 22 -10 22
-5 0 -10 -3 -10 -7z"/>
<path d="M5676 1957 c-7 -60 -24 -97 -45 -97 -4 0 -7 12 -6 28 2 30 -14 72
-27 72 -5 0 -4 -9 2 -19 14 -27 13 -36 -3 -22 -17 14 -27 4 -27 -26 0 -16 -4
-22 -12 -17 -8 5 -9 2 -5 -10 6 -14 3 -16 -13 -11 -15 5 -20 2 -20 -12 1 -18
74 -63 103 -63 7 0 20 15 30 33 18 34 41 165 35 194 -2 10 -8 -12 -12 -50z"/>
<path d="M6081 2013 c-1 -6 -4 -20 -7 -30 -5 -17 -5 -17 6 0 6 10 9 23 6 30
-3 9 -5 9 -5 0z"/>
<path d="M6822 1980 c19 -33 38 -51 38 -36 0 20 -34 76 -45 76 -13 0 -11 -8 7
-40z"/>
<path d="M4355 2000 c-3 -5 -1 -10 4 -10 6 0 11 5 11 10 0 6 -2 10 -4 10 -3 0
-8 -4 -11 -10z"/>
<path d="M4410 2000 c0 -5 5 -10 10 -10 6 0 10 5 10 10 0 6 -4 10 -10 10 -5 0
-10 -4 -10 -10z"/>
<path d="M5575 1991 c-3 -5 -1 -12 5 -16 5 -3 10 1 10 9 0 18 -6 21 -15 7z"/>
<path d="M4435 1980 c-3 -5 -1 -10 4 -10 6 0 11 5 11 10 0 6 -2 10 -4 10 -3 0
-8 -4 -11 -10z"/>
<path d="M6104 1947 c0 -20 4 -33 8 -31 5 3 5 -21 1 -53 -4 -32 -7 -71 -7 -88
0 -16 2 -79 3 -140 2 -76 -1 -109 -8 -107 -6 1 -11 1 -11 -1 0 -7 34 -108 76
-222 41 -115 51 -153 53 -202 1 -31 16 -29 40 5 19 28 19 78 0 66 -5 -3 -9 4
-9 15 0 27 8 26 37 -1 21 -20 25 -20 39 -6 15 14 12 24 -26 104 -39 81 -42 94
-37 149 4 55 4 57 -6 23 -6 -21 -13 -38 -16 -38 -10 0 -80 230 -95 311 -14 72
-14 89 0 131 4 15 3 18 -6 13 -9 -6 -9 -3 -1 13 6 11 11 31 11 43 0 19 -2 20
-16 8 -15 -12 -16 -11 -9 10 4 15 4 21 -3 17 -6 -3 -12 -1 -14 5 -2 7 -4 -4
-4 -24z"/>
<path d="M4566 1963 c-3 -4 -6 -13 -6 -22 0 -14 2 -14 10 -1 8 13 10 12 10 -2
0 -10 5 -18 10 -18 15 0 12 37 -4 43 -8 3 -17 3 -20 0z"/>
<path d="M5630 1940 c0 -8 5 -22 10 -30 9 -13 10 -13 10 0 0 8 -5 22 -10 30
-9 13 -10 13 -10 0z"/>
<path d="M6314 1939 c-3 -6 -2 -15 3 -20 5 -5 9 -1 10 11 2 22 -2 25 -13 9z"/>
<path d="M4376 1922 c-3 -5 1 -9 9 -9 8 0 15 4 15 9 0 4 -4 8 -9 8 -6 0 -12
-4 -15 -8z"/>
<path d="M5727 1913 c-4 -10 -16 -31 -29 -46 -19 -23 -20 -29 -8 -37 11 -7 9
-19 -16 -69 -16 -33 -35 -60 -42 -60 -10 -1 -10 -6 -2 -21 9 -17 8 -19 -7 -13
-14 5 -12 0 7 -23 14 -15 17 -22 8 -15 -17 12 -17 10 -2 -40 9 -30 24 -63 33
-74 10 -11 27 -30 38 -43 11 -12 33 -48 48 -80 15 -31 36 -68 46 -81 16 -20
18 -34 13 -90 l-6 -66 77 -153 c58 -114 81 -152 94 -150 22 5 18 31 -19 118
-61 143 -82 228 -75 300 4 36 16 88 26 116 17 46 17 79 0 94 -10 9 -38 74 -45
106 -4 17 -3 49 2 72 13 57 -2 44 -28 -24 -19 -52 -20 -60 -6 -98 8 -22 20
-70 27 -106 10 -57 10 -70 -5 -98 -9 -18 -21 -30 -27 -27 -11 8 -49 80 -49 95
0 7 -14 46 -30 87 -33 82 -48 216 -27 241 8 10 7 16 -2 22 -15 9 -10 32 21
103 20 43 20 49 6 63 -14 14 -16 14 -21 -3z"/>
<path d="M6835 1920 c3 -5 8 -10 11 -10 2 0 4 5 4 10 0 6 -5 10 -11 10 -5 0
-7 -4 -4 -10z"/>
<path d="M4320 1905 c-11 -13 -10 -14 4 -9 9 3 16 10 16 15 0 13 -6 11 -20 -6z"/>
<path d="M4566 1894 c-8 -22 -4 -25 11 -9 7 8 9 16 4 19 -5 3 -12 -1 -15 -10z"/>
<path d="M4480 1873 c0 -4 5 -15 10 -23 8 -13 10 -13 10 2 0 9 -4 20 -10 23
-5 3 -10 3 -10 -2z"/>
<path d="M4409 1813 c-15 -33 -15 -38 -2 -41 21 -5 25 2 21 43 l-3 36 -16 -38z"/>
<path d="M4498 1813 c-9 -21 -12 -40 -7 -41 6 -2 5 -10 -2 -18 -10 -12 -9 -13
5 -8 10 4 15 12 12 19 -2 7 4 21 14 30 10 9 16 24 13 36 -8 28 -16 24 -35 -18z"/>
<path d="M4045 1829 c-4 -6 -5 -12 -2 -15 2 -3 7 2 10 11 7 17 1 20 -8 4z"/>
<path d="M4443 1819 c-1 -10 2 -19 8 -19 11 0 12 27 1 34 -4 2 -9 -4 -9 -15z"/>
<path d="M4230 1780 c-6 -11 -8 -20 -6 -20 3 0 10 9 16 20 6 11 8 20 6 20 -3
0 -10 -9 -16 -20z"/>
<path d="M4330 1784 c0 -8 5 -12 10 -9 6 4 8 11 5 16 -9 14 -15 11 -15 -7z"/>
<path d="M4400 1750 c0 -5 7 -10 15 -10 8 0 15 5 15 10 0 6 -7 10 -15 10 -8 0
-15 -4 -15 -10z"/>
<path d="M4076 1728 c-24 -33 -19 -45 5 -14 12 15 19 29 16 32 -3 3 -12 -5
-21 -18z"/>
<path d="M4005 1730 c-3 -5 -1 -10 4 -10 6 0 11 5 11 10 0 6 -2 10 -4 10 -3 0
-8 -4 -11 -10z"/>
<path d="M4320 1730 c-9 -6 -10 -10 -3 -10 6 0 15 5 18 10 8 12 4 12 -15 0z"/>
<path d="M4440 1714 c0 -9 5 -12 13 -8 6 4 3 -3 -8 -16 l-20 -23 23 12 c25 13
30 51 7 51 -8 0 -15 -7 -15 -16z"/>
<path d="M4251 1711 c-1 -8 -8 -23 -18 -33 -9 -10 -14 -20 -11 -23 8 -9 40 45
34 58 -3 8 -5 7 -5 -2z"/>
<path d="M4321 1688 c12 -22 25 -23 33 -2 9 23 8 24 -18 22 -20 -2 -23 -5 -15
-20z"/>
<path d="M4397 1703 c-3 -5 1 -14 9 -21 12 -10 14 -10 14 2 0 17 -16 30 -23
19z"/>
<path d="M4110 1685 c-11 -13 -10 -14 4 -9 9 3 16 10 16 15 0 13 -6 11 -20 -6z"/>
<path d="M4151 1667 c-16 -41 -13 -57 5 -24 8 16 13 34 11 40 -3 7 -10 -1 -16
-16z"/>
<path d="M4340 1660 c-14 -10 -21 -22 -17 -26 4 -4 17 2 29 14 28 28 20 36
-12 12z"/>
<path d="M4092 1640 c-18 -16 -29 -30 -24 -30 4 0 21 14 37 30 16 17 27 30 24
30 -2 0 -19 -13 -37 -30z"/>
<path d="M4277 1663 c-4 -3 -7 -11 -7 -17 0 -6 5 -5 12 2 6 6 9 14 7 17 -3 3
-9 2 -12 -2z"/>
<path d="M5435 1640 c9 -16 18 -30 21 -30 2 0 -2 14 -11 30 -9 17 -18 30 -21
30 -2 0 2 -13 11 -30z"/>
<path d="M4419 1643 c-13 -16 -12 -17 4 -4 9 7 17 15 17 17 0 8 -8 3 -21 -13z"/>
<path d="M6001 1638 c7 -16 16 -28 20 -28 4 0 10 -9 14 -19 3 -11 13 -22 21
-25 9 -3 1 13 -17 36 -47 62 -52 66 -38 36z"/>
<path d="M4438 1605 c-6 -30 -2 -32 12 -6 6 11 6 22 1 25 -5 3 -11 -5 -13 -19z"/>
<path d="M4265 1600 c-3 -5 -12 -7 -19 -4 -7 3 -16 -2 -19 -10 -4 -9 -2 -16 3
-16 6 0 10 4 10 8 0 5 7 9 15 10 8 1 22 3 30 4 8 1 15 5 15 10 0 11 -27 10
-35 -2z"/>
<path d="M4082 1555 c-23 -36 -21 -39 13 -26 13 5 20 18 20 35 1 34 -5 33 -33
-9z"/>
<path d="M4245 1560 c-3 -5 -2 -10 4 -10 5 0 13 5 16 10 3 6 2 10 -4 10 -5 0
-13 -4 -16 -10z"/>
<path d="M5430 1541 c0 -11 4 -21 9 -21 18 0 21 18 6 30 -13 10 -15 9 -15 -9z"/>
<path d="M4015 1530 c-10 -11 -13 -20 -7 -20 6 0 16 9 22 20 6 11 9 20 7 20
-2 0 -12 -9 -22 -20z"/>
<path d="M4165 1510 c-3 -5 -1 -10 4 -10 6 0 11 5 11 10 0 6 -2 10 -4 10 -3 0
-8 -4 -11 -10z"/>
<path d="M3975 1501 c-3 -5 -1 -12 5 -16 5 -3 10 1 10 9 0 18 -6 21 -15 7z"/>
<path d="M3953 1450 c-13 -5 -23 -16 -23 -23 0 -8 -7 -20 -15 -27 -8 -7 -13
-16 -10 -20 3 -5 1 -11 -5 -15 -6 -4 -7 -11 -4 -17 4 -6 2 -13 -3 -17 -6 -3
-14 -17 -18 -31 -7 -23 -7 -24 16 -8 69 45 161 98 169 98 6 0 1 -9 -10 -20
-11 -11 -28 -20 -37 -20 -14 0 -15 -2 -4 -12 10 -11 16 -9 31 10 10 12 22 22
27 22 5 0 24 21 41 46 33 46 30 47 -20 11 -15 -11 -42 -22 -60 -24 -18 -2 -36
-10 -40 -18 -11 -19 -39 -8 -31 12 4 11 2 14 -5 9 -7 -4 -10 -20 -7 -37 6 -31
1 -36 -19 -16 -20 20 11 79 37 73 7 -2 8 -1 4 2 -4 2 -3 10 4 18 13 16 12 16
-18 4z"/>
<path d="M4038 1434 c-34 -18 -35 -22 -3 -20 14 0 27 7 30 15 8 20 3 21 -27 5z"/>
<path d="M5496 1435 c4 -8 11 -15 16 -15 6 0 5 6 -2 15 -7 8 -14 15 -16 15 -2
0 -1 -7 2 -15z"/>
<path d="M6026 1312 c12 -31 34 -70 48 -87 l25 -30 -20 40 c-11 22 -25 57 -31
78 -6 21 -19 42 -29 47 -14 8 -13 1 7 -48z"/>
<path d="M3956 1294 c-11 -8 -16 -14 -10 -14 13 0 39 18 34 24 -3 2 -14 -2
-24 -10z"/>
<path d="M3816 1275 c-4 -13 -2 -14 14 -5 23 13 26 20 6 20 -8 0 -16 -7 -20
-15z"/>
<path d="M5212 1200 c0 -14 2 -19 5 -12 2 6 2 18 0 25 -3 6 -5 1 -5 -13z"/>
<path d="M4960 1185 c0 -14 2 -25 4 -25 2 0 6 11 8 25 3 14 1 25 -3 25 -5 0
-9 -11 -9 -25z"/>
<path d="M5601 1114 c-1 -29 5 -58 13 -69 12 -17 13 -13 5 35 -15 85 -17 89
-18 34z"/>
<path d="M5125 1110 c-4 -17 -10 -28 -14 -26 -7 5 -62 -252 -66 -309 -2 -17
-10 -48 -19 -69 -9 -21 -16 -48 -16 -60 0 -11 -7 -39 -15 -61 -10 -28 -14 -85
-15 -183 l0 -143 23 7 c34 10 263 114 282 128 13 9 14 17 5 40 -6 16 -13 45
-16 65 -3 20 -12 45 -19 57 -7 12 -17 37 -20 58 -4 20 -11 36 -15 36 -15 0
-27 87 -23 169 5 116 -18 109 -57 -17 -13 -40 -27 -75 -33 -79 -5 -3 -7 3 -4
13 51 174 81 344 58 330 -4 -3 -11 -35 -14 -71 -8 -80 -25 -145 -45 -165 -13
-13 -14 -13 -8 3 3 11 9 31 11 45 6 26 5 26 -9 -3 -22 -46 -19 -24 8 52 14 37
28 101 31 141 6 75 1 94 -10 42z m-64 -327 c-12 -20 -14 -14 -5 12 4 9 9 14
11 11 3 -2 0 -13 -6 -23z m10 -30 c-12 -20 -14 -14 -5 12 4 9 9 14 11 11 3 -2
0 -13 -6 -23z"/>
<path d="M4930 1003 c-3 -29 -1 -48 3 -44 5 5 7 28 5 52 l-3 44 -5 -52z"/>
<path d="M5014 986 c-3 -21 -4 -39 -1 -42 2 -3 8 11 11 32 4 20 5 38 2 41 -2
3 -8 -11 -12 -31z"/>
<path d="M4825 988 c-13 -42 -35 -160 -30 -168 3 -4 1 -10 -4 -12 -4 -1 -12
-14 -16 -27 -5 -16 -4 -21 4 -17 7 5 11 -2 11 -16 0 -19 2 -20 10 -8 6 8 10
35 9 60 -1 25 1 52 4 60 8 20 25 140 20 140 -2 0 -5 -6 -8 -12z"/>
<path d="M4982 960 c0 -14 2 -19 5 -12 2 6 2 18 0 25 -3 6 -5 1 -5 -13z"/>
<path d="M4614 933 c-11 -16 -23 -36 -27 -46 -4 -10 -11 -15 -17 -12 -6 4 -7
-1 -3 -11 4 -11 3 -15 -5 -10 -7 4 -17 -13 -28 -51 -9 -32 -19 -64 -22 -72
-11 -28 18 0 33 32 13 27 14 28 11 7 -3 -14 -7 -47 -11 -75 l-5 -50 26 55 c14
30 34 94 45 141 10 47 21 94 25 103 9 24 0 20 -22 -11z"/>
<path d="M3375 930 c-3 -5 1 -10 9 -10 9 0 16 5 16 10 0 6 -4 10 -9 10 -6 0
-13 -4 -16 -10z"/>
<path d="M4911 892 c-6 -21 -13 -54 -16 -73 -5 -32 -5 -32 8 6 16 49 28 105
22 105 -2 0 -9 -17 -14 -38z"/>
<path d="M5031 874 c-7 -25 -10 -48 -8 -51 3 -2 10 17 16 43 7 25 10 48 8 51
-3 2 -10 -17 -16 -43z"/>
<path d="M4996 885 c-9 -26 -7 -32 5 -12 6 10 9 21 6 23 -2 3 -7 -2 -11 -11z"/>
<path d="M3185 860 l-20 -9 20 0 c11 0 27 4 35 9 13 9 13 10 0 9 -8 0 -24 -4
-35 -9z"/>
<path d="M3825 834 c-18 -16 -22 -22 -9 -15 18 9 53 42 43 41 -2 -1 -17 -12
-34 -26z"/>
<path d="M3063 817 c-74 -15 -66 -25 12 -16 71 9 125 29 70 27 -16 -1 -54 -6
-82 -11z"/>
<path d="M4876 765 c-9 -26 -7 -32 5 -12 6 10 9 21 6 23 -2 3 -7 -2 -11 -11z"/>
<path d="M2950 760 c-10 -6 1 -7 35 -4 28 4 52 8 54 10 9 9 -75 3 -89 -6z"/>
<path d="M5011 739 c-6 -18 -11 -37 -10 -43 0 -6 7 7 15 28 8 22 12 41 10 43
-2 2 -9 -10 -15 -28z"/>
<path d="M3218 753 c6 -2 18 -2 25 0 6 3 1 5 -13 5 -14 0 -19 -2 -12 -5z"/>
<path d="M3153 700 c-13 -5 -23 -11 -23 -14 0 -6 29 0 60 13 21 8 22 10 5 10
-11 0 -30 -4 -42 -9z"/>
<path d="M2773 613 c9 -2 25 -2 35 0 9 3 1 5 -18 5 -19 0 -27 -2 -17 -5z"/>
<path d="M5322 526 c3 -62 6 -62 29 -1 13 34 14 42 3 38 -8 -3 -14 0 -14 6 0
6 -5 11 -10 11 -6 0 -9 -22 -8 -54z"/>
<path d="M4481 553 c-1 -6 -4 -20 -7 -30 -5 -17 -5 -17 6 0 6 10 9 23 6 30 -3
9 -5 9 -5 0z"/>
<path d="M3025 530 c-3 -6 1 -7 9 -4 18 7 21 14 7 14 -6 0 -13 -4 -16 -10z"/>
<path d="M2811 494 c-56 -30 -59 -34 -33 -34 11 0 27 7 35 15 8 8 17 12 19 9
3 -2 25 5 49 16 l44 20 -35 -1 c-19 0 -55 -11 -79 -25z"/>
<path d="M2980 510 c0 -5 -11 -10 -25 -10 -18 0 -25 -5 -25 -20 0 -15 7 -20
25 -20 14 0 25 5 25 11 0 5 5 7 10 4 6 -3 10 -1 10 4 0 6 -4 11 -10 11 -5 0
-7 7 -4 15 4 8 3 15 0 15 -3 0 -6 -4 -6 -10z"/>
<path d="M3024 499 c-19 -21 -19 -21 9 -8 15 7 27 16 27 21 0 14 -16 9 -36
-13z"/>
<path d="M2662 485 c-41 -13 -77 -26 -80 -30 -4 -3 25 -5 63 -4 55 1 78 6 108
25 20 13 37 26 37 29 0 12 -60 2 -128 -20z"/>
<path d="M2960 431 c0 -5 12 -7 27 -5 39 7 42 14 5 14 -18 0 -32 -4 -32 -9z"/>
<path d="M4044 405 c-3 -8 -4 -20 -2 -27 3 -7 7 -1 10 15 6 29 1 36 -8 12z"/>
<path d="M3750 370 c-6 -11 -8 -20 -6 -20 3 0 10 9 16 20 6 11 8 20 6 20 -3 0
-10 -9 -16 -20z"/>
<path d="M3003 370 c-32 -13 -30 -39 2 -32 26 4 45 22 25 22 -6 0 -8 5 -5 10
7 12 7 12 -22 0z"/>
<path d="M3095 350 c-16 -7 -17 -9 -3 -9 9 -1 20 4 23 9 7 11 7 11 -20 0z"/>
<path d="M2710 240 c-13 -8 -12 -10 3 -10 9 0 17 5 17 10 0 12 -1 12 -20 0z"/>
<path d="M2784 210 c-6 -6 -19 -12 -30 -15 -10 -2 -41 -13 -69 -24 l-50 -20
35 0 c80 -1 189 41 159 60 -19 12 -33 11 -45 -1z"/>
<path d="M2806 124 c-21 -20 -20 -23 3 -17 11 3 22 11 25 19 7 19 -9 18 -28
-2z"/>
</g>
</svg>
